<svg version="1.1" id="Layer_1" xmlns="http://www.w3.org/2000/svg" xmlns:xlink="http://www.w3.org/1999/xlink" x="0px" y="0px"
	 width="100%" viewBox="0 0 352 352" enable-background="new 0 0 352 352" xml:space="preserve">
<path fill="#000000" opacity="1.000000" stroke="none" 
	d="
M135.000000,312.257355 
	C120.501953,312.258484 106.503899,312.258972 92.505852,312.259369 
	C69.126656,312.260071 55.202034,298.455444 55.115982,274.963043 
	C55.018364,248.312622 55.072617,221.661667 55.070602,195.010941 
	C55.068855,171.847748 55.043579,148.684479 55.104828,125.521423 
	C55.129341,116.250198 56.130104,107.186256 62.236370,99.566780 
	C68.739540,91.452049 77.045860,86.832436 87.589058,86.663940 
	C92.254120,86.589386 96.921394,86.551270 101.586327,86.607536 
	C104.510307,86.642815 105.865379,85.418396 105.787430,82.424652 
	C105.692055,78.761520 105.676971,75.088623 105.829796,71.428398 
	C106.101112,64.930061 109.566330,61.454876 115.327003,61.691101 
	C120.675232,61.910412 123.299927,65.117744 123.351303,71.546921 
	C123.377930,74.879562 123.527550,78.224068 123.307983,81.542458 
	C123.057587,85.326942 124.923691,86.658112 128.349197,86.624725 
	C129.348831,86.614983 130.348770,86.640373 131.348572,86.640594 
	C161.677628,86.647354 192.006699,86.657547 222.335754,86.655441 
	C229.660248,86.654930 229.652206,86.635925 229.657562,79.129051 
	C229.659836,75.963432 229.498245,72.779648 229.776291,69.636421 
	C230.218979,64.631805 233.556412,61.664330 238.310730,61.664043 
	C243.231003,61.663750 246.637177,64.404549 247.109589,69.380753 
	C247.501846,73.512535 247.419174,77.708328 247.273438,81.866180 
	C247.159851,85.106636 248.668793,86.477135 251.673553,86.550308 
	C254.838013,86.627373 258.032379,86.902199 261.165741,86.597382 
	C280.092377,84.756142 298.369110,99.162949 298.177032,123.680328 
	C297.865051,163.505417 298.164246,203.334946 297.987030,243.161621 
	C297.928497,256.309845 299.176025,269.519073 297.444000,282.601288 
	C295.106354,300.257599 281.271088,312.206573 263.481323,312.239258 
	C220.821030,312.317627 178.160461,312.259644 135.000000,312.257355 
M82.592140,154.117874 
	C73.231026,154.103745 73.127083,154.121033 73.121681,160.162735 
	C73.087135,198.800659 73.039612,237.438736 73.107544,276.076538 
	C73.129456,288.537170 79.480736,294.641296 91.982040,294.643280 
	C147.940872,294.652130 203.899689,294.654144 259.858521,294.651642 
	C274.258881,294.651031 280.631683,288.323090 280.630829,274.045837 
	C280.628662,236.906647 280.621643,199.767456 280.614807,162.628265 
	C280.613220,154.145645 280.609985,154.119095 271.930725,154.118301 
	C209.143692,154.112595 146.356659,154.118469 82.592140,154.117874 
M101.467491,136.594803 
	C127.094887,136.908997 152.717316,136.140198 178.351212,136.513367 
	C207.634216,136.939667 236.927795,136.687958 266.216644,136.648361 
	C282.224854,136.626709 280.879456,138.551224 280.505066,121.127441 
	C280.273834,110.366470 273.659607,104.346558 263.004272,104.141678 
	C259.342255,104.071266 255.675949,104.193008 252.015152,104.094543 
	C248.684830,104.004982 247.086838,105.328346 247.273087,108.824104 
	C247.441162,111.978340 247.385513,115.153519 247.257278,118.312515 
	C247.034836,123.791473 243.648697,127.255943 238.631836,127.313324 
	C233.164810,127.375854 229.929138,124.111649 229.686859,118.174736 
	C229.585098,115.680901 229.408005,113.149811 229.704224,110.688507 
	C230.308990,105.663498 228.374725,104.053886 223.291946,104.089745 
	C194.486053,104.292961 165.677963,104.193314 136.870621,104.182213 
	C123.544945,104.177078 123.544952,104.162117 123.347237,117.619965 
	C123.256683,123.783707 120.359627,127.191643 115.091263,127.331841 
	C109.625702,127.477287 106.164040,123.977715 105.858345,117.803917 
	C105.702042,114.647102 105.709976,111.475128 105.805603,108.314911 
	C105.895973,105.328041 104.571472,104.104027 101.621376,104.167976 
	C97.127792,104.265388 92.625816,104.058022 88.135719,104.216087 
	C80.071205,104.499977 73.712013,110.719551 73.222321,118.814720 
	C72.981331,122.798622 73.219513,126.810974 72.993980,130.796478 
	C72.744576,135.203934 74.884125,136.714462 78.997627,136.646179 
	C86.155960,136.527328 93.317451,136.598251 101.467491,136.594803 
z"/>
<path fill="#000000" opacity="1.000000" stroke="none" 
	d="
M264.337708,221.075455 
	C264.275696,229.028717 264.275818,229.048111 257.012299,229.094055 
	C252.195435,229.124527 247.378159,229.080154 242.561096,229.087677 
	C239.923691,229.091797 238.495895,227.940536 238.681458,225.165894 
	C238.703552,224.835556 238.664612,224.501617 238.669968,224.169601 
	C238.917282,208.834091 236.450073,211.289383 251.308044,211.102005 
	C252.470703,211.087341 253.633667,211.102219 254.796448,211.094894 
	C266.710907,211.019821 264.084290,210.754532 264.337708,221.075455 
z"/>
<path fill="#000000" opacity="1.000000" stroke="none" 
	d="
M164.212311,226.695190 
	C163.739899,228.484222 162.683853,228.971436 161.463104,228.980652 
	C154.972733,229.029663 148.481750,229.047333 141.991348,229.011581 
	C139.790894,228.999466 138.616943,227.832230 138.700470,225.552231 
	C138.712631,225.220261 138.670670,224.886627 138.674545,224.554001 
	C138.860229,208.636261 136.492355,211.139801 151.438095,211.086136 
	C164.393768,211.039597 164.394608,211.108124 164.330856,224.236847 
	C164.327621,224.902603 164.299286,225.568207 164.212311,226.695190 
z"/>
<path fill="#000000" opacity="1.000000" stroke="none" 
	d="
M188.663605,220.962357 
	C188.738510,210.284683 187.497406,211.013077 197.924423,211.036804 
	C201.245728,211.044357 204.567078,211.035477 207.888367,211.045044 
	C208.884201,211.047913 209.967896,210.836914 210.861694,211.150482 
	C217.716599,213.555344 213.266022,219.289062 214.252655,223.410919 
	C214.840607,225.867188 214.928177,229.065155 210.802902,229.080917 
	C204.659790,229.104416 198.510559,229.222992 192.374939,228.999176 
	C186.811661,228.796249 189.271729,224.284042 188.663605,220.962357 
z"/>
<path fill="#000000" opacity="1.000000" stroke="none" 
	d="
M113.298157,211.873825 
	C115.025757,216.678879 114.129959,221.330109 114.298187,225.931427 
	C114.385864,228.329529 112.806755,229.070404 110.747513,229.069901 
	C104.616852,229.068390 98.486168,229.025543 92.355560,228.988037 
	C89.630135,228.971375 88.615211,227.525940 88.661713,224.876801 
	C88.943550,208.821182 86.261528,211.176132 101.553368,211.083221 
	C105.338127,211.060211 109.176147,210.536438 113.298157,211.873825 
z"/>
<path fill="#000000" opacity="1.000000" stroke="none" 
	d="
M250.009750,244.657242 
	C253.829071,244.661926 257.160248,244.803787 260.475159,244.631989 
	C263.570984,244.471512 264.366943,245.786591 264.425262,248.748077 
	C264.691833,262.276855 264.776459,262.373779 251.196579,262.254425 
	C236.755920,262.127533 239.036987,264.171356 238.583160,250.502808 
	C238.429901,245.886551 239.992661,244.083862 244.532211,244.631241 
	C246.170212,244.828766 247.852463,244.659424 250.009750,244.657242 
z"/>
<path fill="#000000" opacity="1.000000" stroke="none" 
	d="
M190.065338,195.191269 
	C187.580490,190.132812 188.909348,184.989975 188.900208,179.931534 
	C188.897278,178.305527 190.449539,177.879318 191.848999,177.871063 
	C198.340424,177.832779 205.149185,176.616028 211.238739,178.179672 
	C217.942810,179.901123 213.083237,186.685974 214.249786,191.057114 
	C214.953781,193.695053 213.614563,195.450470 210.450409,195.392822 
	C203.794235,195.271591 197.135025,195.316757 190.065338,195.191269 
z"/>
<path fill="#000000" opacity="1.000000" stroke="none" 
	d="
M164.326599,188.928391 
	C164.915924,193.824249 163.303406,195.737732 158.561340,195.469879 
	C152.282440,195.115250 145.968430,195.382538 139.144882,195.382538 
	C138.290878,190.245529 138.656555,185.318649 138.790024,180.425415 
	C138.860214,177.852280 140.984360,177.861435 142.827362,177.841766 
	C148.141617,177.785034 153.468704,178.006866 158.767471,177.707382 
	C163.165710,177.458817 164.912308,179.113693 164.362610,183.465454 
	C164.156097,185.100357 164.327515,186.782990 164.326599,188.928391 
z"/>
<path fill="#000000" opacity="1.000000" stroke="none" 
	d="
M254.961227,195.376358 
	C250.485123,195.369339 246.502457,195.298950 242.522568,195.374725 
	C239.793381,195.426682 238.655548,194.245773 238.681015,191.510590 
	C238.834549,175.015427 236.703690,178.201401 251.251862,177.827515 
	C251.583450,177.818985 251.915512,177.820328 252.247208,177.825760 
	C265.965393,178.050232 264.032410,175.902023 264.406342,189.505600 
	C264.532318,194.087692 262.985229,195.977875 258.439484,195.381424 
	C257.461487,195.253098 256.451233,195.370880 254.961227,195.376358 
z"/>
<path fill="#000000" opacity="1.000000" stroke="none" 
	d="
M114.233704,259.763367 
	C113.721062,262.180023 112.140327,262.213135 110.644875,262.223389 
	C104.670769,262.264343 98.695221,262.185883 92.722397,262.284515 
	C89.728752,262.333954 88.603149,261.023712 88.651291,258.090424 
	C88.918121,241.831970 86.510452,244.917450 100.865746,244.706100 
	C114.485741,244.505569 114.488228,244.660309 114.330818,258.293457 
	C114.326988,258.625183 114.304871,258.956726 114.233704,259.763367 
z"/>
<path fill="#000000" opacity="1.000000" stroke="none" 
	d="
M164.294434,258.811584 
	C164.269440,261.398315 163.074265,262.230865 161.114288,262.230865 
	C154.812546,262.230896 148.382355,263.017639 142.242355,262.019928 
	C134.954514,260.835724 139.851089,254.455643 138.814194,250.558395 
	C138.163467,248.112564 137.840408,244.609543 142.442719,244.675308 
	C148.577591,244.762970 154.714920,244.737534 160.850571,244.686737 
	C163.440033,244.665283 164.361923,245.960938 164.320114,248.381378 
	C164.262817,251.697174 164.311188,255.014801 164.294434,258.811584 
z"/>
<path fill="#000000" opacity="1.000000" stroke="none" 
	d="
M188.780685,247.220612 
	C189.358429,244.496109 191.215195,244.716888 192.824127,244.702469 
	C198.638153,244.650345 204.454712,244.766815 210.266724,244.646576 
	C213.248596,244.584900 214.244263,245.778946 214.393265,248.750519 
	C215.072083,262.289124 215.153595,262.285065 201.770721,262.291290 
	C188.556976,262.297485 188.556641,262.297455 188.681976,249.192169 
	C188.686752,248.693939 188.711044,248.195892 188.780685,247.220612 
z"/>
<path fill="#000000" opacity="1.000000" stroke="none" 
	d="
M114.204514,180.288559 
	C114.286850,184.419540 114.266029,188.082581 114.329613,191.744141 
	C114.373100,194.248535 113.245728,195.381500 110.724579,195.361450 
	C104.565094,195.312500 98.404732,195.318558 92.245178,195.364029 
	C89.741371,195.382507 88.523598,194.295822 88.692902,191.755264 
	C88.714951,191.424362 88.671448,191.089676 88.675072,190.756912 
	C88.841370,175.535538 86.700447,178.084366 101.045036,177.809311 
	C104.040871,177.751862 107.039314,177.758591 110.035301,177.809677 
	C111.681747,177.837738 113.468582,177.730270 114.204514,180.288559 
z"/>
</svg>