<svg version="1.1" id="Layer_1" xmlns="http://www.w3.org/2000/svg" xmlns:xlink="http://www.w3.org/1999/xlink" x="0px" y="0px"
	 width="100%" viewBox="0 0 352 352" enable-background="new 0 0 352 352" xml:space="preserve">
<path fill="#000000" opacity="1.000000" stroke="none" 
	d="
M284.054108,198.000000 
	C284.059875,235.490463 284.076569,272.480927 284.069550,309.471375 
	C284.067871,318.308502 283.100647,319.273743 274.389587,319.274261 
	C212.071899,319.277985 149.754211,319.274048 87.436523,319.265594 
	C79.834396,319.264557 78.693344,318.171387 78.692261,310.636047 
	C78.680618,229.489655 78.682892,148.343277 78.694817,67.196884 
	C78.695824,60.307652 79.905342,59.027779 86.834648,58.987801 
	C99.830933,58.912815 112.830231,58.831882 125.823448,59.046410 
	C130.316879,59.120605 131.998734,57.730682 131.884445,53.054703 
	C131.671661,44.348942 132.581268,43.682468 141.262100,43.681057 
	C168.088730,43.676697 194.915359,43.675999 221.741989,43.683357 
	C230.072449,43.685646 230.681686,44.309753 230.413971,52.367245 
	C230.212128,58.442432 230.630951,58.933495 236.732544,58.952927 
	C249.562531,58.993782 262.392761,58.947739 275.222778,58.985943 
	C283.000275,59.009102 284.098083,60.132236 284.097565,68.033691 
	C284.094604,111.189125 284.072113,154.344559 284.054108,198.000000 
M88.355469,263.499939 
	C88.354073,276.997009 88.434029,290.494934 88.296860,303.990631 
	C88.260368,307.581055 89.427017,309.097595 93.159248,309.102753 
	C101.648987,309.114471 110.141228,309.688416 118.627197,309.588379 
	C142.109711,309.311432 165.587296,309.137604 189.071976,309.546112 
	C199.557785,309.728516 210.083603,308.682800 220.540466,309.207275 
	C236.547119,310.010040 252.509979,309.199249 268.492126,309.153107 
	C272.623901,309.141174 274.058502,307.661011 273.974854,303.567596 
	C273.767151,293.406647 273.884583,283.238861 273.885956,273.073822 
	C273.894836,207.250763 273.862579,141.427597 274.010071,75.604851 
	C274.021149,70.676117 272.739166,68.760628 267.555054,68.979904 
	C258.572235,69.359863 249.562134,69.081139 240.563568,69.105423 
	C229.604065,69.135002 230.391739,68.389999 230.417725,79.528465 
	C230.435928,87.335831 229.641312,88.197037 221.932953,88.202759 
	C196.603439,88.221565 171.273911,88.213470 145.944382,88.211723 
	C133.236908,88.210846 131.068115,89.554268 131.857422,74.330215 
	C132.080902,70.019501 130.200424,68.929375 126.245209,69.004135 
	C115.917252,69.199356 105.583405,69.068771 95.251991,69.099083 
	C88.375053,69.119255 88.354309,69.143082 88.353905,76.028099 
	C88.350281,138.185364 88.354507,200.342621 88.355469,263.499939 
M149.734558,53.391197 
	C142.164642,53.449821 141.997330,53.617455 141.986374,61.304348 
	C141.980667,65.303162 142.092987,69.305527 141.957886,73.299721 
	C141.842514,76.710876 143.313644,78.092628 146.697739,78.085129 
	C169.857498,78.033836 193.017563,78.025208 216.177185,78.103157 
	C219.710709,78.115051 220.853607,76.570412 220.738052,73.239540 
	C220.576385,68.579758 220.466843,63.895863 220.758957,59.248936 
	C221.050797,54.606369 219.216125,53.262569 214.665039,53.305866 
	C193.339661,53.508755 172.011276,53.394730 149.734558,53.391197 
z"/>
<path fill="#000000" opacity="1.000000" stroke="none" 
	d="
M120.058258,250.991974 
	C128.702774,251.001923 136.858032,250.916260 145.009537,251.053375 
	C151.180130,251.157166 152.328033,252.409653 152.338318,258.394562 
	C152.356628,269.044250 152.368179,279.694153 152.316193,290.343658 
	C152.289612,295.788330 150.949890,297.203094 145.579636,297.244873 
	C134.930496,297.327759 124.279961,297.336151 113.630768,297.263306 
	C108.347923,297.227173 106.742241,295.631073 106.701836,290.401855 
	C106.620819,279.919128 106.649925,269.435364 106.672211,258.952087 
	C106.686028,252.451843 107.973869,251.181717 114.575478,251.011230 
	C116.238495,250.968292 117.903358,250.996582 120.058258,250.991974 
M142.676224,272.539825 
	C142.674927,270.707550 142.510010,268.857635 142.705185,267.046539 
	C143.161407,262.812683 141.657990,260.907257 137.139481,261.169647 
	C131.993317,261.468475 126.811302,261.371460 121.654236,261.185974 
	C117.925079,261.051819 116.089561,262.208466 116.278442,266.282349 
	C116.525040,271.601318 116.506699,276.946167 116.299049,282.268036 
	C116.148865,286.117340 117.968033,287.185242 121.430412,287.101959 
	C126.924042,286.969818 132.428741,286.910675 137.917908,287.113861 
	C141.736038,287.255188 142.939209,285.558990 142.709610,282.013885 
	C142.526993,279.194092 142.674561,276.352936 142.676224,272.539825 
z"/>
<path fill="#000000" opacity="1.000000" stroke="none" 
	d="
M205.002533,132.971893 
	C199.836884,132.953415 195.169785,132.982803 190.504639,132.901184 
	C187.225037,132.843796 184.360596,131.879623 184.248734,127.982788 
	C184.135422,124.035530 186.969528,122.872856 190.256790,122.864594 
	C211.421768,122.811378 232.587006,122.833488 253.752106,122.866631 
	C257.166626,122.871971 259.823456,124.272377 259.775269,128.034149 
	C259.725555,131.913651 256.793274,132.889740 253.499115,132.899414 
	C237.500122,132.946396 221.500992,132.952057 205.002533,132.971893 
z"/>
<path fill="#000000" opacity="1.000000" stroke="none" 
	d="
M138.405014,131.404037 
	C133.081589,136.704193 128.033646,141.779968 122.929886,146.799026 
	C118.669746,150.988480 115.595894,150.692657 112.603165,145.681564 
	C109.617920,140.682999 106.797020,135.585052 103.964508,130.497040 
	C102.455055,127.785606 101.824387,124.818733 105.117630,123.164116 
	C108.213783,121.608521 110.810883,122.895752 112.668701,125.933861 
	C114.629532,129.140427 116.033821,132.759399 118.892532,135.378204 
	C121.788589,134.399277 123.293320,132.074265 125.148720,130.249969 
	C132.269913,123.248100 139.276566,116.129913 146.351639,109.080917 
	C148.856522,106.585266 151.792572,104.370445 154.935776,107.611977 
	C157.981049,110.752510 155.949951,113.737526 153.440414,116.276329 
	C148.525330,121.248726 143.585754,126.196907 138.405014,131.404037 
z"/>
<path fill="#000000" opacity="1.000000" stroke="none" 
	d="
M232.000000,279.266113 
	C218.033951,279.260895 204.567886,279.258331 191.101837,279.244537 
	C188.934113,279.242340 186.732742,279.315430 185.204651,277.312225 
	C183.074326,274.519531 184.145966,270.741394 187.579742,269.703766 
	C189.291290,269.186554 191.186691,269.122528 192.999405,269.119263 
	C211.619064,269.085724 230.238846,269.094025 248.858521,269.130951 
	C250.846786,269.134888 252.833008,269.424530 254.822937,269.529114 
	C257.981628,269.695129 259.955109,271.270203 259.841614,274.476898 
	C259.727173,277.711578 257.445557,279.106903 254.442230,279.150269 
	C247.129120,279.255829 239.814194,279.235046 232.000000,279.266113 
z"/>
<path fill="#000000" opacity="1.000000" stroke="none" 
	d="
M120.691483,217.929626 
	C117.245285,219.806671 114.848053,218.680618 113.183243,215.919373 
	C109.917511,210.502777 106.768341,205.014267 103.657654,199.506561 
	C102.157433,196.850327 102.325836,194.158157 105.028374,192.479996 
	C108.000000,190.634750 110.416977,192.049072 112.266388,194.663086 
	C114.535500,197.870331 115.598427,201.909637 118.761658,204.453018 
	C121.155067,204.077835 122.276390,202.273636 123.656624,200.912766 
	C131.363602,193.313843 139.014633,185.658142 146.678329,178.015381 
	C149.222092,175.478577 152.238052,174.308487 154.996552,177.086212 
	C157.618774,179.726700 156.330460,182.541351 153.923279,184.931366 
	C142.931656,195.844635 131.968399,206.786484 120.691483,217.929626 
z"/>
<path fill="#000000" opacity="1.000000" stroke="none" 
	d="
M247.368103,192.586288 
	C250.300735,192.612823 252.794052,192.642578 255.287308,192.676666 
	C258.180359,192.716232 259.511078,194.525558 259.762177,197.079575 
	C260.008850,199.588776 258.449371,201.159958 256.161133,201.789368 
	C254.746735,202.178452 253.208160,202.235336 251.725067,202.237289 
	C231.936264,202.263412 212.147400,202.254044 192.358551,202.250595 
	C191.527359,202.250443 190.691467,202.273010 189.865784,202.197418 
	C186.733002,201.910583 184.177185,200.620316 184.206223,197.140030 
	C184.236359,193.528183 186.831757,192.596283 190.061874,192.601151 
	C209.017456,192.629807 227.973129,192.600906 247.368103,192.586288 
z"/>
</svg>