<svg version="1.1" id="Layer_1" xmlns="http://www.w3.org/2000/svg" xmlns:xlink="http://www.w3.org/1999/xlink" x="0px" y="0px"
	 width="100%" viewBox="0 0 360 360" enable-background="new 0 0 360 360" xml:space="preserve">
<path fill="#010101" opacity="1.000000" stroke="none" 
	d="
M1.000000,134.000000 
	C1.000000,89.348656 1.000000,45.197304 1.000000,1.022978 
	C120.943062,1.022978 240.886124,1.022978 360.914612,1.022978 
	C360.914612,120.901382 360.914612,240.802856 360.914612,360.852173 
	C241.000137,360.852173 121.000092,360.852173 1.000000,360.852173 
	C1.000000,285.447144 1.000000,209.973572 1.000000,134.000000 
M310.908203,66.803841 
	C310.908203,66.803841 310.649536,66.787788 310.649536,66.787788 
	C310.649536,66.787788 311.000000,66.999695 311.091156,67.196404 
	C311.091156,67.196404 311.349731,67.213295 311.349731,67.213295 
	C311.349731,67.213295 311.000000,67.000305 310.908203,66.803841 
M240.571533,57.520889 
	C240.183868,57.395279 239.796188,57.269669 239.157516,57.251160 
	C239.157516,57.251160 239.001587,57.027195 238.541901,56.550388 
	C237.908585,56.409527 237.275253,56.268669 235.924210,56.079693 
	C225.596985,51.774509 215.269745,47.469322 204.838562,42.847885 
	C204.583588,42.553337 204.310486,42.548222 203.296127,42.802605 
	C198.422073,40.762711 193.548035,38.722816 188.995758,36.005554 
	C189.330505,35.337036 189.665253,34.668518 190.833328,34.000000 
	C192.222214,34.000000 193.611115,34.000000 195.656464,34.097198 
	C196.865692,34.569923 198.074936,35.042648 199.284164,35.515373 
	C199.463242,35.114624 199.642319,34.713871 199.821396,34.313122 
	C198.214264,33.542084 196.607132,32.771042 194.444733,31.510382 
	C191.963150,31.006922 189.481583,30.503460 186.840439,29.345564 
	C184.893631,28.230375 182.946808,27.115189 180.449371,25.511978 
	C177.820404,24.608044 175.234802,23.525282 172.544830,22.872919 
	C171.123734,22.528282 169.520828,22.933390 167.278290,23.001852 
	C166.185532,23.334568 165.092758,23.667284 163.257584,24.115234 
	C160.635269,25.146933 158.012939,26.178631 154.192352,27.681767 
	C158.791550,29.009531 161.630157,29.829018 163.897491,31.044352 
	C141.665207,40.126427 119.432930,49.208500 97.056114,58.349617 
	C97.609390,59.099304 97.744545,59.482765 98.002693,59.603733 
	C121.063759,70.409943 144.116440,81.234718 167.249313,91.885300 
	C168.610504,92.512001 170.845230,92.199837 172.299652,91.522232 
	C195.384323,80.767357 218.407837,69.881241 241.828018,58.929043 
	C241.573776,58.608578 241.319534,58.288116 241.017059,58.003990 
	C241.017059,58.003990 241.018097,57.943607 240.571533,57.520889 
M304.910339,61.794426 
	C304.910339,61.794426 304.640930,61.781090 304.640930,61.781090 
	C304.640930,61.781090 304.994141,62.004189 305.090790,62.624813 
	C305.675049,63.298992 306.259308,63.973171 306.843536,64.647354 
	C307.135132,64.280678 307.426697,63.913998 307.718262,63.547321 
	C306.813568,63.029652 305.908844,62.511978 304.910339,61.794426 
M252.019241,87.563110 
	C252.029358,87.749809 252.039459,87.936516 251.743622,88.650635 
	C251.696136,90.675026 251.355896,92.769775 251.813248,94.672844 
	C251.923447,95.131294 255.022400,95.574997 256.145630,94.948135 
	C258.967010,93.373596 258.343719,90.891922 256.968414,87.787025 
	C257.486267,86.449455 258.004120,85.111885 258.763092,83.151543 
	C256.289520,83.151543 254.234940,82.743912 252.441696,83.254364 
	C250.182663,83.897415 248.498245,85.329109 252.019241,87.563110 
M48.003277,87.131065 
	C48.003277,84.779953 48.003277,82.428833 48.003277,80.077721 
	C47.337875,80.070183 46.672478,80.062637 46.007076,80.055099 
	C46.007076,82.702278 46.007076,85.349464 46.003265,88.934128 
	C46.004326,95.623772 46.005386,102.313408 46.003712,109.939987 
	C46.003712,154.649094 46.003712,199.358185 46.003712,244.067291 
	C46.670124,244.065109 47.336533,244.062912 48.002945,244.060730 
	C48.002945,199.040359 48.002945,154.019974 48.519897,108.350883 
	C48.347420,101.567154 48.174946,94.783424 48.003277,87.131065 
M220.994537,106.745827 
	C220.301666,107.830948 219.608795,108.916069 218.542099,109.278618 
	C217.790039,103.171501 217.037979,97.064384 216.634689,90.502647 
	C216.423096,89.668640 216.211502,88.834625 215.685135,87.308861 
	C215.487610,85.801735 215.290100,84.294601 215.608582,82.373825 
	C216.541611,80.994629 217.474655,79.615425 218.407700,78.236229 
	C216.495132,77.882851 214.408142,76.866692 212.706436,77.314537 
	C209.200745,78.237152 209.912918,81.257355 210.006546,84.396980 
	C203.670395,87.264671 197.334259,90.132362 190.742447,92.515862 
	C190.161530,93.010979 189.580597,93.506088 188.526169,94.511124 
	C183.566177,96.733788 178.606201,98.956451 173.021088,101.269547 
	C172.677704,101.502274 172.334335,101.734993 171.443985,102.468491 
	C170.012787,102.465637 168.362045,102.935280 167.183914,102.387810 
	C153.414749,95.989349 139.716675,89.437912 126.048462,82.191078 
	C127.402306,81.085724 128.756149,79.980377 130.407684,78.631989 
	C125.194489,76.454758 117.085953,81.480797 115.543922,71.078270 
	C113.414520,73.372169 112.213768,74.665680 110.293228,75.894142 
	C104.717346,73.301376 99.162148,70.662918 93.560043,68.128120 
	C87.399574,65.340675 81.195953,62.648613 74.871338,59.230873 
	C73.599861,58.488663 72.328384,57.746452 71.056908,57.004238 
	C70.833748,57.655495 70.610580,58.306747 70.387421,58.958000 
	C71.664879,59.342491 72.942337,59.726982 74.087952,60.867344 
	C72.527145,62.946835 71.403572,66.014847 69.328873,66.932510 
	C60.919861,70.651894 57.837315,74.730583 57.834393,84.185463 
	C57.818375,135.989456 57.822708,187.793457 57.829445,239.597443 
	C57.830280,246.031616 58.091648,246.292099 64.637222,246.294556 
	C94.620247,246.305786 124.603264,246.299500 154.586288,246.299576 
	C202.225967,246.299713 249.865662,246.293823 297.505341,246.313492 
	C300.757477,246.314835 304.112946,246.673737 305.106293,242.077301 
	C306.132263,243.907806 307.158234,245.738312 309.035431,249.087616 
	C309.898834,246.012665 310.925354,244.056107 310.928497,242.097916 
	C311.015289,187.732300 311.008057,133.366486 310.947754,79.000793 
	C310.946075,77.474571 310.193939,75.949188 309.921783,74.916832 
	C307.815247,77.207008 306.072662,79.101463 304.083649,80.287994 
	C303.691223,78.604507 303.298828,76.921013 302.869537,74.567245 
	C302.464081,74.078796 302.058594,73.590347 301.148682,72.783997 
	C300.069061,71.622009 298.989441,70.460022 297.601349,68.733849 
	C297.021637,68.507530 296.441956,68.281219 295.044769,67.940689 
	C292.149109,67.540848 289.264465,66.994286 286.355194,66.775032 
	C281.817474,66.433044 277.263000,66.313065 272.574066,66.029716 
	C272.574066,66.029716 272.271698,65.941696 271.571503,65.738220 
	C270.834137,64.266891 270.096771,62.795567 269.895050,60.982845 
	C269.906128,60.451305 269.917236,59.919762 269.928314,59.388222 
	C269.248016,59.682457 268.567749,59.976688 267.033783,60.222660 
	C265.036316,60.187786 263.038879,60.152916 260.908691,59.526520 
	C260.446808,59.292461 259.984894,59.058403 259.523010,58.824348 
	C259.364075,59.578709 259.205139,60.333065 259.024841,62.013050 
	C258.999054,63.496387 259.108917,64.996796 258.924652,66.460190 
	C257.980072,73.963676 258.937134,80.690224 266.201752,85.694443 
	C266.466309,86.796310 266.730896,87.898178 266.231750,88.972725 
	C264.704132,88.752487 263.176544,88.532249 261.601379,88.305161 
	C261.601379,91.648933 261.601379,94.487076 261.601379,97.437447 
	C263.294495,97.293541 264.732330,97.171333 266.028381,97.947258 
	C265.973236,100.631538 265.918091,103.315811 265.073975,106.001396 
	C263.836823,106.832748 261.548523,107.635399 261.524902,108.499901 
	C261.285004,117.284828 259.176025,119.331306 250.856384,117.897697 
	C249.839340,117.722443 249.002594,116.500946 248.082275,115.764305 
	C248.961456,114.842865 249.840637,113.921425 251.021622,113.704903 
	C252.975845,114.014580 254.930054,114.324265 257.263733,114.694077 
	C257.060669,111.068008 256.904938,108.287140 257.179871,104.849937 
	C260.197662,101.432640 259.095367,99.922798 254.873856,100.014069 
	C249.963699,100.120209 247.433151,98.097420 247.946274,92.890076 
	C248.060120,91.734711 247.532852,90.516167 247.300781,89.326714 
	C246.821167,89.213921 246.341553,89.101128 245.861938,88.988335 
	C245.243103,90.356064 244.607117,91.716362 244.010147,93.093582 
	C243.392685,94.518105 242.813095,95.959038 241.767075,96.785545 
	C241.887222,92.878624 242.007370,88.971710 242.707397,84.715477 
	C249.617096,80.151207 250.526550,73.575462 249.260880,65.533585 
	C250.444748,64.385063 252.051437,63.431618 252.696106,62.034336 
	C253.369492,60.574734 253.880463,57.966358 253.103638,57.144432 
	C251.671402,55.629025 249.312256,54.730717 247.190872,54.290203 
	C246.588348,54.165085 245.283615,56.420013 244.626846,57.745018 
	C242.631302,61.771126 246.257172,63.650517 247.587433,66.718704 
	C241.720016,69.495300 236.003983,72.680672 229.939941,74.926331 
	C224.550537,76.922165 223.031479,79.912445 225.082031,85.783958 
	C225.124466,87.020599 225.166916,88.257248 224.855698,90.021362 
	C223.528091,89.916138 222.200485,89.810913 220.076828,89.642593 
	C220.397888,95.331314 220.698959,100.665657 220.994537,106.745827 
M314.001953,213.929062 
	C314.001953,223.648743 314.001953,233.368423 314.001953,243.088104 
	C314.659058,243.082474 315.316132,243.076859 315.973236,243.071228 
	C315.973236,233.038315 315.973236,223.005402 315.980408,212.038666 
	C315.980408,168.997223 315.980408,125.955780 315.980408,82.914337 
	C315.323151,82.916710 314.665894,82.919075 314.008636,82.921448 
	C314.008636,126.277519 314.008636,169.633591 314.001953,213.929062 
M311.255493,268.975830 
	C310.622192,268.822357 309.980316,268.697357 309.357239,268.509827 
	C307.701019,268.011292 306.052948,267.485779 304.401611,266.971008 
	C305.475159,268.281494 306.368561,269.814728 307.658417,270.857697 
	C310.661865,273.286285 310.507324,275.449493 306.310913,277.496307 
	C304.365936,277.014679 302.421295,276.113525 300.475891,276.111786 
	C220.835724,276.041016 141.195465,276.051178 61.555218,276.051514 
	C60.388981,276.051544 59.185959,275.882507 58.068523,276.117615 
	C57.225788,276.294891 56.062977,276.810211 55.775131,277.486725 
	C51.445484,287.662720 47.237419,297.890381 42.772503,308.656342 
	C67.449440,308.656342 91.253548,308.705597 115.056030,308.532166 
	C116.462059,308.521912 118.213181,306.994324 119.197464,305.708649 
	C127.120384,295.359711 137.466309,289.933105 150.536896,289.912872 
	C170.863434,289.881378 191.190094,289.878021 211.516617,289.916199 
	C224.386948,289.940399 234.769485,295.145813 242.382050,305.483795 
	C244.194489,307.945099 246.053680,308.738556 248.998703,308.723389 
	C270.990814,308.609863 292.983765,308.667969 314.976471,308.646790 
	C316.218262,308.645599 317.459839,308.419281 318.745331,308.293457 
	C318.453674,306.923859 318.248871,305.962158 318.762085,305.127106 
	C330.180084,307.899384 325.128510,318.766449 329.053741,327.331818 
	C330.637634,324.580017 331.702484,323.164093 332.319550,321.574341 
	C334.003632,317.235687 330.990540,314.253632 329.650787,311.085297 
	C330.546692,311.234680 331.442596,311.384094 332.984436,311.641235 
	C330.501678,305.562897 328.294006,300.102814 326.043182,294.660553 
	C322.704926,286.588898 319.410736,278.497162 315.906433,270.497833 
	C315.326721,269.174438 314.887268,265.246521 311.255493,268.975830 
M123.114426,262.053497 
	C124.821556,262.004944 126.528694,261.956390 128.874573,262.272125 
	C129.457123,263.613983 130.039673,264.955841 130.678543,266.427429 
	C164.230820,266.427429 197.830505,266.427429 229.977005,266.427429 
	C232.605087,263.904785 234.103806,261.356964 236.178406,260.737366 
	C239.214935,259.830475 240.766403,262.285522 241.589264,265.218536 
	C241.788879,265.930054 243.688904,266.476379 244.841248,266.547974 
	C247.826965,266.733429 250.831772,266.612762 253.828949,266.612976 
	C260.753479,266.613464 267.677979,266.613129 274.442108,266.613129 
	C274.442108,262.586182 274.442108,259.363312 274.442108,256.282166 
	C211.832306,256.282166 149.644226,256.282166 87.306091,256.282166 
	C87.306091,259.756165 87.306091,262.862366 87.306091,266.613068 
	C95.774811,266.613068 104.053925,266.548370 112.331314,266.639954 
	C116.565384,266.686798 120.977806,267.390656 123.114426,262.053497 
M316.249603,318.130066 
	C224.385315,318.130066 132.521042,318.130066 40.658390,318.130066 
	C40.658390,323.648804 40.658390,328.372467 40.658390,333.191254 
	C134.395584,333.191254 227.761581,333.191254 321.614136,333.191254 
	C321.614136,329.426025 321.399994,325.948486 321.673615,322.509735 
	C321.954437,318.980530 320.663910,317.561798 316.249603,318.130066 
M161.499893,308.727051 
	C184.865097,308.727051 208.230316,308.727051 232.744110,308.727051 
	C226.590500,302.101501 219.935455,299.449341 212.440964,299.381805 
	C191.476212,299.192810 170.507584,299.197205 149.542755,299.382599 
	C142.036545,299.448944 135.393768,302.137909 129.197708,308.726959 
	C140.394455,308.726959 150.447159,308.726959 161.499893,308.727051 
M29.309299,310.659393 
	C30.537542,314.434448 31.858992,312.459961 32.657310,310.553406 
	C34.621769,305.861816 36.278675,301.042480 38.175327,296.321167 
	C41.306572,288.526581 44.475597,280.745972 47.753288,273.012268 
	C48.519596,271.204163 49.784988,269.607574 51.204350,267.286346 
	C49.471050,267.286346 48.384655,267.082947 48.281612,267.315430 
	C41.987907,281.513977 35.774815,295.748291 29.309299,310.659393 
M111.669281,45.511799 
	C108.162064,47.149952 103.516068,46.708374 100.508736,51.273689 
	C104.031090,51.273689 106.582954,51.273689 108.427536,51.273689 
	C111.344612,48.867588 113.890862,46.767361 116.437111,44.667130 
	C116.320930,44.296059 116.204750,43.924988 116.088570,43.553913 
	C114.818336,44.071892 113.548111,44.589867 111.669281,45.511799 
M93.420456,58.130787 
	C92.667122,56.850327 91.864624,54.475052 91.170181,54.506233 
	C89.469376,54.582596 87.818459,55.769817 85.969528,56.588844 
	C87.381622,59.141949 88.384178,60.954590 89.912056,63.717037 
	C91.335220,61.587959 92.262817,60.200256 93.420456,58.130787 
M50.941040,253.432144 
	C51.947094,254.106155 52.953148,254.780182 53.959206,255.454208 
	C54.313087,255.043884 54.666973,254.633560 55.020855,254.223251 
	C53.918045,252.987610 52.902359,251.650665 51.657619,250.580032 
	C51.299263,250.271790 50.280834,250.730957 49.565041,250.838287 
	C49.872318,251.546890 50.179592,252.255493 50.941040,253.432144 
M31.978525,340.276093 
	C32.576344,339.995697 33.174160,339.715302 33.771969,339.434875 
	C32.634056,337.985229 31.496143,336.535614 30.358231,335.085968 
	C29.861826,335.475800 29.365423,335.865601 28.869019,336.255402 
	C29.727409,337.464203 30.585802,338.672974 31.978525,340.276093 
M235.059235,65.394997 
	C234.484695,66.572472 233.910172,67.749947 233.335632,68.927422 
	C234.048370,69.126816 234.761093,69.326210 235.473831,69.525604 
	C235.528625,68.277397 235.583420,67.029198 235.059235,65.394997 
M211.637146,34.450851 
	C211.844650,35.436745 212.052155,36.422642 212.259674,37.408535 
	C212.960938,37.166142 213.662186,36.923748 214.363449,36.681351 
	C213.649139,35.994137 212.934830,35.306923 211.637146,34.450851 
M98.439674,47.574646 
	C97.205246,47.434158 95.970818,47.293671 94.736382,47.153179 
	C94.781799,47.732986 94.827217,48.312794 94.872635,48.892601 
	C95.956284,48.627762 97.039925,48.362923 98.439674,47.574646 
M78.041870,55.126369 
	C78.250816,55.860600 78.459770,56.594830 78.668716,57.329063 
	C79.295639,56.653812 79.922569,55.978565 80.549500,55.303318 
	C79.831726,55.088276 79.113960,54.873238 78.041870,55.126369 
M54.849236,64.481400 
	C55.392639,64.034416 55.936039,63.587429 56.479443,63.140442 
	C56.277798,62.929604 56.076157,62.718761 55.874508,62.507919 
	C55.411167,63.039253 54.947830,63.570591 54.849236,64.481400 
M131.399704,34.545425 
	C131.756943,34.063118 132.114166,33.580811 132.471405,33.098499 
	C132.096954,32.927624 131.722519,32.756744 131.348068,32.585869 
	C131.184296,33.224323 131.020538,33.862778 131.399704,34.545425 
M220.063004,38.934200 
	C220.206238,38.573593 220.349487,38.212990 220.492722,37.852379 
	C219.924606,37.781330 219.356506,37.710281 218.788391,37.639233 
	C219.040970,38.057316 219.293564,38.475399 220.063004,38.934200 
M256.588074,53.864883 
	C257.269226,54.234501 257.950409,54.604118 258.631561,54.973740 
	C258.745972,54.667938 258.860382,54.362137 258.974792,54.056335 
	C258.290100,53.864616 257.605438,53.672897 256.588074,53.864883 
M137.320923,31.409180 
	C136.669769,31.234808 136.018616,31.060436 135.367447,30.886065 
	C135.306198,31.214746 135.244934,31.543428 135.183670,31.872112 
	C135.764908,31.828667 136.346146,31.785221 137.320923,31.409180 
M107.319954,43.409969 
	C106.668503,43.235569 106.017059,43.061169 105.365608,42.886768 
	C105.304375,43.215904 105.243149,43.545040 105.181915,43.874180 
	C105.763336,43.830288 106.344757,43.786400 107.319954,43.409969 
M241.609726,46.831619 
	C241.630814,47.356060 241.651901,47.880497 241.673004,48.404934 
	C241.949631,48.318310 242.226273,48.231686 242.502899,48.145061 
	C242.358078,47.734234 242.213242,47.323402 241.609726,46.831619 
M63.811253,58.652882 
	C63.520832,58.409019 63.230412,58.165154 62.939999,57.921288 
	C62.789951,58.334023 62.639904,58.746758 62.489849,59.159485 
	C62.882088,59.144264 63.274326,59.129044 63.811253,58.652882 
M306.510773,274.155304 
	C306.827698,274.095001 307.144592,274.034729 307.461517,273.974426 
	C307.146942,273.902496 306.832367,273.830566 306.510773,274.155304 
M151.550095,24.757538 
	C151.814545,24.942743 152.078979,25.127949 152.343430,25.313150 
	C152.173981,25.038414 152.004532,24.763680 151.550095,24.757538 
M313.499298,75.148697 
	C313.818787,75.088203 314.138245,75.027710 314.457733,74.967216 
	C314.139252,74.893929 313.820740,74.820648 313.499298,75.148697 
M48.161285,248.495758 
	C48.100090,248.177246 48.038895,247.858719 47.977699,247.540207 
	C47.906010,247.855835 47.834316,248.171478 48.161285,248.495758 
M271.873016,56.664288 
	C271.938843,56.551189 272.004700,56.438087 272.070526,56.324986 
	C271.967834,56.372620 271.865143,56.420254 271.873016,56.664288 
M188.753662,25.480185 
	C188.907303,25.472124 189.060944,25.464064 189.214584,25.456005 
	C189.111969,25.407957 189.009338,25.359909 188.753662,25.480185 
M226.492355,40.540886 
	C226.492355,40.540886 226.466980,40.484383 226.492355,40.540886 
M48.541950,74.507996 
	C48.541950,74.507996 48.483120,74.535004 48.541950,74.507996 
M298.489929,57.552071 
	C298.489929,57.552071 298.455444,57.482361 298.489929,57.552071 
z"/>
<path fill="#95CDD8" opacity="1.000000" stroke="none" 
	d="
M242.127502,85.064789 
	C242.007370,88.971710 241.887222,92.878624 242.076523,97.504654 
	C242.426300,100.016663 242.639038,101.825645 242.473740,103.599388 
	C242.026932,108.394012 241.086075,113.170547 241.041489,117.960770 
	C241.023956,119.845856 242.812271,123.348862 243.870087,123.384445 
	C251.039642,123.625626 258.233795,123.136192 265.798401,122.675102 
	C266.438934,120.311684 266.701050,118.156075 267.024414,115.582855 
	C266.678101,112.110191 266.270538,109.055138 265.862946,106.000092 
	C265.918091,103.315811 265.973236,100.631538 266.362122,97.257271 
	C266.795715,94.044868 266.895599,91.522461 266.995483,89.000046 
	C266.730896,87.898178 266.466309,86.796310 266.582733,85.375092 
	C269.137268,85.036514 271.310822,85.017303 273.607971,85.376282 
	C274.884216,91.807922 280.407776,89.107887 283.680969,90.418694 
	C283.680969,135.156433 283.680969,179.550995 283.680969,223.817688 
	C214.937515,223.817688 146.556580,223.817688 78.305954,223.817688 
	C78.305954,179.044556 78.305954,134.659027 78.305954,90.003815 
	C85.169014,90.003815 91.654007,89.872070 98.130157,90.054192 
	C101.896423,90.160110 104.170555,88.705200 105.484253,85.052582 
	C108.288620,85.043686 110.650963,85.038216 113.076797,85.394051 
	C112.358948,92.812675 111.577591,99.869987 110.595833,107.274193 
	C109.558121,114.168137 108.652306,120.707428 107.909317,127.265160 
	C107.467255,131.166901 109.345818,133.118057 113.325562,133.150055 
	C117.602386,133.184433 121.878082,133.359451 126.416138,133.681778 
	C127.116966,133.917389 127.555916,133.944336 128.292389,134.173431 
	C132.596695,136.358551 136.705856,138.160248 140.592773,140.355484 
	C158.660172,150.559540 177.199753,151.318893 195.317215,141.487411 
	C204.498062,136.505417 213.581451,132.930527 224.385559,133.019318 
	C227.684814,133.203476 229.983047,132.473541 230.343201,128.568542 
	C229.468674,120.707893 228.454849,113.281799 227.484436,105.413605 
	C226.755005,99.812302 225.982178,94.653099 225.209351,89.493889 
	C225.166916,88.257248 225.124466,87.020599 225.596405,85.423248 
	C231.449692,85.063278 236.788589,85.064034 242.127502,85.064789 
M191.499847,208.670959 
	C206.324692,208.670547 221.149521,208.675446 235.974365,208.663803 
	C238.137833,208.662109 240.586197,209.196060 242.383759,208.362701 
	C244.148697,207.544464 246.378799,205.265167 246.330627,203.690475 
	C246.282028,202.101273 243.835098,200.386902 242.137573,199.136368 
	C241.371506,198.571991 239.874832,198.979675 238.709625,198.979614 
	C192.236298,198.976822 145.762970,198.977066 99.289642,198.982376 
	C97.958221,198.982529 96.246758,198.532745 95.376671,199.182358 
	C93.706108,200.429596 91.612640,202.213837 91.413361,203.970291 
	C91.260902,205.313980 93.509674,207.374573 95.148422,208.333618 
	C96.414734,209.074707 98.391052,208.660477 100.051750,208.661148 
	C130.201111,208.673325 160.350479,208.670517 191.499847,208.670959 
M176.500107,179.243958 
	C151.353302,179.244064 126.206505,179.244125 101.059708,179.244476 
	C99.893959,179.244492 98.727852,179.266632 97.562531,179.245087 
	C94.102814,179.181168 91.416359,180.462845 91.486702,184.232620 
	C91.550819,187.668594 94.060951,189.005783 97.341766,188.936890 
	C98.174034,188.919403 99.007057,188.939392 99.839729,188.939407 
	C146.136612,188.940308 192.433487,188.941223 238.730362,188.939819 
	C239.895737,188.939789 241.417068,189.376083 242.155579,188.807587 
	C243.929596,187.441986 246.281387,185.745712 246.567581,183.898895 
	C246.766891,182.612778 244.107635,180.591614 242.374435,179.416336 
	C241.452164,178.790955 239.783752,179.247253 238.452133,179.246994 
	C218.134796,179.242889 197.817459,179.244034 176.500107,179.243958 
M222.500061,159.612640 
	C212.170837,159.612640 201.841599,159.612640 191.512375,159.612686 
	C160.524658,159.612823 129.536942,159.622330 98.549232,159.599991 
	C95.105263,159.597504 91.862984,160.054886 91.860451,164.378662 
	C91.858147,168.314774 94.741875,169.098618 98.110641,169.096817 
	C145.758423,169.071365 193.406204,169.070908 241.053986,169.092850 
	C244.278015,169.094345 246.865936,168.151199 246.999405,164.564774 
	C247.146057,160.623459 244.401108,159.596863 240.993027,159.609329 
	C235.162079,159.630661 229.331009,159.613541 222.500061,159.612640 
z"/>
<path fill="#43A8C1" opacity="1.000000" stroke="none" 
	d="
M273.484375,84.998093 
	C271.310822,85.017303 269.137268,85.036514 266.553589,85.030426 
	C258.937134,80.690224 257.980072,73.963676 258.924652,66.460190 
	C259.108917,64.996796 258.999054,63.496387 259.322937,61.498569 
	C260.094482,60.695404 260.567963,60.406719 261.041412,60.118038 
	C263.038879,60.152916 265.036316,60.187786 267.549622,60.471493 
	C268.496765,60.921627 268.928101,61.122932 269.359406,61.324238 
	C270.096771,62.795567 270.834137,64.266891 271.949463,65.957092 
	C272.327454,66.175957 272.715637,66.099007 272.715637,66.099007 
	C277.263000,66.313065 281.817474,66.433044 286.355194,66.775032 
	C289.264465,66.994286 292.149109,67.540848 295.640656,68.243500 
	C296.794312,68.796890 297.352081,69.047455 297.909851,69.298035 
	C298.989441,70.460022 300.069061,71.622009 301.474884,73.253349 
	C302.169525,74.227646 302.537964,74.732590 302.906403,75.237526 
	C303.298828,76.921013 303.691223,78.604507 304.129456,81.105125 
	C304.164154,134.126480 304.151520,186.330719 304.152222,238.534943 
	C304.152252,239.691711 304.304749,240.848465 304.386108,242.005234 
	C304.112946,246.673737 300.757477,246.314835 297.505341,246.313492 
	C249.865662,246.293823 202.225967,246.299713 154.586288,246.299576 
	C124.603264,246.299500 94.620247,246.305786 64.637222,246.294556 
	C58.091648,246.292099 57.830280,246.031616 57.829445,239.597443 
	C57.822708,187.793457 57.818375,135.989456 57.834393,84.185463 
	C57.837315,74.730583 60.919861,70.651894 69.328873,66.932510 
	C71.403572,66.014847 72.527145,62.946835 74.362930,60.484909 
	C74.637917,60.102478 75.011131,59.914993 75.011131,59.914993 
	C81.195953,62.648613 87.399574,65.340675 93.560043,68.128120 
	C99.162148,70.662918 104.717346,73.301376 110.872360,76.160248 
	C112.243446,76.732567 113.035400,77.038780 113.871300,77.548889 
	C113.915253,77.752785 114.244324,78.009117 114.193642,78.413651 
	C114.102592,79.900948 114.062233,80.983704 113.912872,82.137672 
	C113.698456,82.403870 113.745621,82.549294 113.784760,83.041580 
	C113.420532,83.969589 113.216911,84.501160 113.013298,85.032738 
	C110.650963,85.038216 108.288620,85.043686 105.345184,84.717278 
	C103.731979,81.138481 101.330009,80.244781 98.167519,80.284309 
	C91.171898,80.371765 84.174438,80.307938 77.177734,80.313889 
	C69.147850,80.320709 68.246147,81.188568 68.244247,89.140579 
	C68.233437,134.452606 68.234467,179.764618 68.236702,225.076645 
	C68.237099,233.073151 69.084015,233.919647 77.136414,233.920166 
	C146.437149,233.924683 215.737900,233.924652 285.038635,233.920486 
	C292.740601,233.920029 293.759491,232.925858 293.760742,225.373856 
	C293.768097,181.394531 293.765167,137.415222 293.765594,93.435905 
	C293.765747,79.917442 293.655853,79.878342 280.125000,80.266518 
	C276.666840,80.365730 274.357727,81.535759 273.484375,84.998093 
z"/>
<path fill="#F9E78E" opacity="1.000000" stroke="none" 
	d="
M318.044067,305.000427 
	C318.248871,305.962158 318.453674,306.923859 318.745331,308.293457 
	C317.459839,308.419281 316.218262,308.645599 314.976471,308.646790 
	C292.983765,308.667969 270.990814,308.609863 248.998703,308.723389 
	C246.053680,308.738556 244.194489,307.945099 242.382050,305.483795 
	C234.769485,295.145813 224.386948,289.940399 211.516617,289.916199 
	C191.190094,289.878021 170.863434,289.881378 150.536896,289.912872 
	C137.466309,289.933105 127.120384,295.359711 119.197464,305.708649 
	C118.213181,306.994324 116.462059,308.521912 115.056030,308.532166 
	C91.253548,308.705597 67.449440,308.656342 42.772503,308.656342 
	C47.237419,297.890381 51.445484,287.662720 55.775131,277.486725 
	C56.062977,276.810211 57.225788,276.294891 58.068523,276.117615 
	C59.185959,275.882507 60.388981,276.051544 61.555218,276.051514 
	C141.195465,276.051178 220.835724,276.041016 300.475891,276.111786 
	C302.421295,276.113525 304.365936,277.014679 306.614777,278.137451 
	C308.668457,282.850677 310.418274,286.922729 312.160309,291.281982 
	C312.455811,292.046783 312.759125,292.524384 313.084351,293.408752 
	C313.901642,295.573456 314.697021,297.331360 315.441101,299.232910 
	C315.478271,299.708038 315.678467,299.916229 315.992676,300.346680 
	C316.678009,302.128235 317.361053,303.564331 318.044067,305.000427 
z"/>
<path fill="#F99788" opacity="1.000000" stroke="none" 
	d="
M316.717743,318.129517 
	C320.663910,317.561798 321.954437,318.980530 321.673615,322.509735 
	C321.399994,325.948486 321.614136,329.426025 321.614136,333.191254 
	C227.761581,333.191254 134.395584,333.191254 40.658390,333.191254 
	C40.658390,328.372467 40.658390,323.648804 40.658390,318.130066 
	C132.521042,318.130066 224.385315,318.130066 316.717743,318.129517 
z"/>
<path fill="#F87661" opacity="1.000000" stroke="none" 
	d="
M241.445343,59.025131 
	C218.407837,69.881241 195.384323,80.767357 172.299652,91.522232 
	C170.845230,92.199837 168.610504,92.512001 167.249313,91.885300 
	C144.116440,81.234718 121.063759,70.409943 98.002693,59.603733 
	C97.744545,59.482765 97.609390,59.099304 97.056114,58.349617 
	C119.432930,49.208500 141.665207,40.126427 164.353424,30.848709 
	C164.809357,30.653067 164.992218,30.364250 165.371277,30.311979 
	C168.067429,30.308783 170.560455,29.821125 172.667252,30.511715 
	C178.094025,32.290562 183.349854,34.590927 188.673981,36.682922 
	C193.548035,38.722816 198.422073,40.762711 203.862595,42.972588 
	C204.600220,43.149765 204.771362,43.156956 204.942520,43.164139 
	C215.269745,47.469322 225.596985,51.774509 236.511780,56.343269 
	C237.733444,56.746960 238.367508,56.887077 239.001587,57.027195 
	C239.001587,57.027195 239.157516,57.251160 239.483017,57.445747 
	C240.211716,57.741428 240.614899,57.842518 241.018097,57.943607 
	C241.018097,57.943607 241.017059,58.003990 241.146149,58.246605 
	C241.331940,58.667854 241.388641,58.846493 241.445343,59.025131 
M174.041000,38.274822 
	C172.920151,33.223988 171.090088,32.064270 166.466599,33.772243 
	C161.477859,35.615147 156.555435,37.637802 151.606873,39.589180 
	C140.317291,44.041039 128.979034,48.377151 117.791443,53.072201 
	C115.967857,53.837498 114.242752,55.997543 113.578163,57.899414 
	C113.219009,58.927216 114.855133,61.520779 116.179611,62.131348 
	C127.046967,67.141014 137.992310,72.000603 149.090790,76.466347 
	C150.526810,77.044167 154.263657,75.502396 154.638504,74.253342 
	C155.166061,72.495392 153.977600,69.770439 152.704758,68.072250 
	C151.747253,66.794785 149.501831,66.485512 147.833084,65.737755 
	C142.531937,63.362301 137.232376,60.983353 130.837708,58.114777 
	C144.290161,52.798664 156.503403,48.064114 168.619370,43.092518 
	C170.603409,42.278393 172.158966,40.420059 174.041000,38.274822 
z"/>
<path fill="#F89688" opacity="1.000000" stroke="none" 
	d="
M215.092575,82.787476 
	C215.290100,84.294601 215.487610,85.801735 215.777145,88.027283 
	C216.008072,89.482887 216.147003,90.220078 216.285919,90.957268 
	C217.037979,97.064384 217.790039,103.171501 218.663849,110.049294 
	C219.174484,113.213310 219.563400,115.606651 219.890167,118.402328 
	C219.551437,120.542000 219.274841,122.279350 218.686707,123.920029 
	C217.940887,123.802940 217.506592,123.782524 217.020172,123.439392 
	C216.651184,122.078346 216.334290,121.040009 216.072418,119.743454 
	C216.049728,119.327339 215.972031,119.169426 215.938263,118.604210 
	C214.965988,112.465622 213.949738,106.734329 212.990540,100.649887 
	C212.770889,99.167770 212.494202,98.038818 212.205170,96.550949 
	C210.787323,93.608078 208.959976,92.150009 205.659088,93.878693 
	C205.127670,94.190781 204.885620,94.476547 204.707352,94.770584 
	C204.771133,94.778847 204.747314,94.652420 204.487335,94.775101 
	C204.104187,95.246819 203.981003,95.595848 203.896759,95.941193 
	C203.935730,95.937508 203.900467,95.867615 203.633850,96.107971 
	C203.482727,97.479561 203.598236,98.610786 203.597290,100.108032 
	C203.977386,102.981544 204.473907,105.489052 204.911377,108.331573 
	C204.972351,109.099579 205.092407,109.532562 205.165131,110.332176 
	C205.435013,112.134171 205.752213,113.569550 206.014786,115.257942 
	C206.033005,115.667397 206.105865,115.823830 206.138382,116.382950 
	C206.375473,119.792870 206.652908,122.800117 206.570160,125.825279 
	C205.570068,126.137253 204.930145,126.431305 203.941223,126.725212 
	C197.722260,129.798203 191.852325,132.871323 185.721252,135.932251 
	C185.315536,136.017395 185.170975,136.114746 184.701874,136.201645 
	C183.579086,136.517609 182.780807,136.844009 181.657578,137.136093 
	C180.965927,137.310593 180.599258,137.519409 179.841492,137.666122 
	C173.295624,137.793503 167.140839,137.983002 160.751297,138.059204 
	C160.345596,137.977402 160.174683,138.008881 159.671906,137.868576 
	C156.918915,137.063446 154.497772,136.430084 151.894928,135.564514 
	C151.147827,135.205841 150.582428,135.079391 149.792343,134.699539 
	C144.616608,131.887833 139.665573,129.329544 134.499390,126.524887 
	C133.861679,126.219193 133.439102,126.159859 132.721954,125.890381 
	C132.206909,124.335457 131.662857,122.951805 131.818909,121.652229 
	C132.767120,113.755844 133.874802,105.878601 135.010162,97.744347 
	C135.019028,97.333603 134.946976,97.173492 134.896393,96.656876 
	C133.338303,93.304085 131.260422,91.888428 127.781891,94.156158 
	C127.204079,94.365463 127.053780,94.644196 126.761932,95.249878 
	C125.349388,102.326752 124.257889,109.173477 123.031891,116.336197 
	C122.909622,117.104652 122.921844,117.557114 122.745300,118.332138 
	C122.427032,119.287048 122.474823,120.045937 122.132103,120.526108 
	C121.354836,121.615112 120.385292,122.566895 119.493927,123.574463 
	C119.123871,122.365791 118.518448,121.171707 118.442436,119.944824 
	C118.344063,118.357162 118.668137,116.743324 118.943932,114.785812 
	C119.645958,109.610252 120.214378,104.789635 120.911026,99.655479 
	C121.020348,98.896339 121.001442,98.450745 121.136253,97.638596 
	C121.496414,95.181335 121.702850,93.090622 122.051941,90.632355 
	C122.471237,88.351311 122.488586,86.342216 123.142853,84.567978 
	C123.434425,83.777290 125.008057,83.459381 125.999802,82.926895 
	C139.716675,89.437912 153.414749,95.989349 167.183914,102.387810 
	C168.362045,102.935280 170.012787,102.465637 172.042725,102.209061 
	C172.976395,101.692802 173.311310,101.435966 173.646210,101.179123 
	C178.606201,98.956451 183.566177,96.733788 189.060806,94.254227 
	C190.062988,93.664909 190.530548,93.332481 190.998108,93.000053 
	C197.334259,90.132362 203.670395,87.264671 210.631958,84.110535 
	C212.535767,83.478546 213.814163,83.133011 215.092575,82.787476 
z"/>
<path fill="#8FC5CF" opacity="1.000000" stroke="none" 
	d="
M122.406158,261.764557 
	C120.977806,267.390656 116.565384,266.686798 112.331314,266.639954 
	C104.053925,266.548370 95.774811,266.613068 87.306091,266.613068 
	C87.306091,262.862366 87.306091,259.756165 87.306091,256.282166 
	C149.644226,256.282166 211.832306,256.282166 274.442108,256.282166 
	C274.442108,259.363312 274.442108,262.586182 274.442108,266.613129 
	C267.677979,266.613129 260.753479,266.613464 253.828949,266.612976 
	C250.831772,266.612762 247.826965,266.733429 244.841248,266.547974 
	C243.688904,266.476379 241.788879,265.930054 241.589264,265.218536 
	C240.766403,262.285522 239.214935,259.830475 236.178406,260.737366 
	C234.103806,261.356964 232.605087,263.904785 229.977005,266.427429 
	C197.830505,266.427429 164.230820,266.427429 130.678543,266.427429 
	C130.039673,264.955841 129.457123,263.613983 128.312134,261.751373 
	C125.968529,261.408600 124.187340,261.586578 122.406158,261.764557 
z"/>
<path fill="#010100" opacity="1.000000" stroke="none" 
	d="
M304.746216,242.041260 
	C304.304749,240.848465 304.152252,239.691711 304.152222,238.534943 
	C304.151520,186.330719 304.164154,134.126480 304.252686,81.459084 
	C306.072662,79.101463 307.815247,77.207008 309.921783,74.916832 
	C310.193939,75.949188 310.946075,77.474571 310.947754,79.000793 
	C311.008057,133.366486 311.015289,187.732300 310.928497,242.097916 
	C310.925354,244.056107 309.898834,246.012665 309.035431,249.087616 
	C307.158234,245.738312 306.132263,243.907806 304.746216,242.041260 
z"/>
<path fill="#E6B362" opacity="1.000000" stroke="none" 
	d="
M160.999878,308.726990 
	C150.447159,308.726959 140.394455,308.726959 129.197708,308.726959 
	C135.393768,302.137909 142.036545,299.448944 149.542755,299.382599 
	C170.507584,299.197205 191.476212,299.192810 212.440964,299.381805 
	C219.935455,299.449341 226.590500,302.101501 232.744110,308.727051 
	C208.230316,308.727051 184.865097,308.727051 160.999878,308.726990 
z"/>
<path fill="#010100" opacity="1.000000" stroke="none" 
	d="
M265.468445,106.000748 
	C266.270538,109.055138 266.678101,112.110191 266.643799,115.718979 
	C265.941315,118.476120 265.680634,120.679520 265.419983,122.882919 
	C258.233795,123.136192 251.039642,123.625626 243.870087,123.384445 
	C242.812271,123.348862 241.023956,119.845856 241.041489,117.960770 
	C241.086075,113.170547 242.026932,108.394012 242.473740,103.599388 
	C242.639038,101.825645 242.426300,100.016663 242.301453,97.808273 
	C242.813095,95.959038 243.392685,94.518105 244.010147,93.093582 
	C244.607117,91.716362 245.243103,90.356064 245.861938,88.988335 
	C246.341553,89.101128 246.821167,89.213921 247.300781,89.326714 
	C247.532852,90.516167 248.060120,91.734711 247.946274,92.890076 
	C247.433151,98.097420 249.963699,100.120209 254.873856,100.014069 
	C259.095367,99.922798 260.197662,101.432640 256.584259,105.061485 
	C253.059128,104.583252 251.393616,105.428833 251.406235,108.750603 
	C251.411621,110.166176 250.962448,111.583473 250.719818,112.999985 
	C249.840637,113.921425 248.961456,114.842865 248.082275,115.764313 
	C249.002594,116.500946 249.839340,117.722443 250.856384,117.897697 
	C259.176025,119.331306 261.285004,117.284828 261.524902,108.499901 
	C261.548523,107.635399 263.836823,106.832748 265.468445,106.000748 
z"/>
<path fill="#010101" opacity="1.000000" stroke="none" 
	d="
M318.403076,305.063782 
	C317.361053,303.564331 316.678009,302.128235 316.338257,300.247375 
	C316.905914,298.900116 317.130249,297.997681 317.354584,297.095215 
	C316.733856,297.759888 316.113159,298.424591 315.492432,299.089264 
	C314.697021,297.331360 313.901642,295.573456 313.361847,293.346252 
	C313.834961,292.433380 314.052521,291.989807 314.270050,291.546234 
	C313.569397,291.362396 312.868774,291.178589 312.168121,290.994781 
	C310.418274,286.922729 308.668457,282.850677 306.904022,278.409607 
	C310.507324,275.449493 310.661865,273.286285 307.658417,270.857697 
	C306.368561,269.814728 305.475159,268.281494 304.401611,266.971008 
	C306.052948,267.485779 307.701019,268.011292 309.357239,268.509827 
	C309.980316,268.697357 310.622192,268.822357 311.683167,269.353455 
	C313.407196,273.154053 314.703583,276.577026 316.062988,280.306763 
	C316.750275,281.075684 317.374512,281.537842 317.999207,282.416565 
	C317.999786,284.221710 317.999878,285.610229 318.056458,287.348755 
	C319.741943,289.799133 321.370972,291.899567 323.131561,294.290741 
	C323.508759,295.387634 323.754395,296.193817 323.768829,297.243164 
	C324.024689,298.657532 324.511749,299.828766 325.052887,301.341309 
	C326.404663,304.788422 327.702332,307.894226 329.000000,311.000000 
	C330.990540,314.253632 334.003632,317.235687 332.319550,321.574341 
	C331.702484,323.164093 330.637634,324.580017 329.053741,327.331818 
	C325.128510,318.766449 330.180084,307.899384 318.403076,305.063782 
z"/>
<path fill="#43A5BD" opacity="1.000000" stroke="none" 
	d="
M242.417450,84.890137 
	C236.788589,85.064034 231.449692,85.063278 225.656158,85.054413 
	C223.031479,79.912445 224.550537,76.922165 229.939941,74.926331 
	C236.003983,72.680672 241.720016,69.495300 248.041138,66.488937 
	C248.494858,66.259163 248.928116,66.158997 248.928116,66.158997 
	C250.526550,73.575462 249.617096,80.151207 242.417450,84.890137 
z"/>
<path fill="#0B0B0B" opacity="1.000000" stroke="none" 
	d="
M48.002945,108.999603 
	C48.002945,154.019974 48.002945,199.040359 48.002945,244.060730 
	C47.336533,244.062912 46.670124,244.065109 46.003712,244.067291 
	C46.003712,199.358185 46.003712,154.649094 46.337723,109.470352 
	C47.115471,109.000343 47.559208,108.999977 48.002945,108.999603 
z"/>
<path fill="#121212" opacity="1.000000" stroke="none" 
	d="
M314.008636,212.989670 
	C314.008636,169.633591 314.008636,126.277519 314.008636,82.921448 
	C314.665894,82.919075 315.323151,82.916710 315.980408,82.914337 
	C315.980408,125.955780 315.980408,168.997223 315.649719,212.512787 
	C314.882233,212.987823 314.445435,212.988754 314.008636,212.989670 
z"/>
<path fill="#010100" opacity="1.000000" stroke="none" 
	d="
M219.952301,118.000000 
	C219.563400,115.606651 219.174484,113.213310 218.850754,110.410583 
	C219.608795,108.916069 220.301666,107.830948 221.455963,106.372871 
	C223.758606,105.951843 225.599808,105.903778 227.441025,105.855713 
	C228.454849,113.281799 229.468674,120.707893 229.899170,128.567719 
	C227.543884,129.000961 225.771942,129.000473 224.000061,128.579346 
	C224.093491,126.680672 223.922012,125.124626 224.330215,123.739395 
	C225.523300,119.690796 223.634888,118.214790 219.952301,118.000000 
z"/>
<path fill="#040404" opacity="1.000000" stroke="none" 
	d="
M29.431753,310.319336 
	C35.774815,295.748291 41.987907,281.513977 48.281612,267.315430 
	C48.384655,267.082947 49.471050,267.286346 51.204350,267.286346 
	C49.784988,269.607574 48.519596,271.204163 47.753288,273.012268 
	C44.475597,280.745972 41.306572,288.526581 38.175327,296.321167 
	C36.278675,301.042480 34.621769,305.861816 32.657310,310.553406 
	C31.858992,312.459961 30.537542,314.434448 29.431753,310.319336 
z"/>
<path fill="#040404" opacity="1.000000" stroke="none" 
	d="
M316.000000,280.000000 
	C314.703583,276.577026 313.407196,273.154053 312.054810,269.365540 
	C314.887268,265.246521 315.326721,269.174438 315.906433,270.497833 
	C319.410736,278.497162 322.704926,286.588898 326.043182,294.660553 
	C328.294006,300.102814 330.501678,305.562897 332.984436,311.641235 
	C331.442596,311.384094 330.546692,311.234680 329.325378,311.042664 
	C327.702332,307.894226 326.404663,304.788422 325.052307,300.980469 
	C324.665100,299.185516 324.332550,298.092773 324.000000,297.000000 
	C323.754395,296.193817 323.508759,295.387634 323.076569,293.928284 
	C321.407593,291.067993 322.138062,287.136780 318.000000,286.998779 
	C317.999878,285.610229 317.999786,284.221710 317.936523,282.109711 
	C317.248932,280.924164 316.624481,280.462097 316.000000,280.000000 
z"/>
<path fill="#010100" opacity="1.000000" stroke="none" 
	d="
M188.834869,36.344238 
	C183.349854,34.590927 178.094025,32.290562 172.667252,30.511715 
	C170.560455,29.821125 168.067429,30.308783 165.372925,29.893723 
	C164.663651,27.685156 164.331833,25.842579 164.000000,24.000000 
	C165.092758,23.667284 166.185532,23.334568 167.890396,23.246035 
	C171.691833,24.711657 174.841782,26.061384 178.099060,27.061577 
	C178.883423,27.302429 180.023499,26.384842 181.000000,25.999998 
	C182.946808,27.115189 184.893631,28.230375 186.923462,30.054562 
	C188.004318,31.842373 189.002151,32.921185 190.000000,34.000000 
	C189.665253,34.668518 189.330505,35.337036 188.834869,36.344238 
z"/>
<path fill="#010100" opacity="1.000000" stroke="none" 
	d="
M126.024132,82.558990 
	C125.008057,83.459381 123.434425,83.777290 123.142853,84.567978 
	C122.488586,86.342216 122.471237,88.351311 121.641083,90.632385 
	C119.236038,90.886330 117.384499,90.772682 114.654312,90.605110 
	C118.640800,86.048431 117.407509,82.025124 115.933029,77.709564 
	C115.192879,77.397263 114.510109,77.371124 113.827347,77.344986 
	C113.035400,77.038780 112.243446,76.732567 111.232254,76.192772 
	C112.213768,74.665680 113.414520,73.372169 115.543922,71.078270 
	C117.085953,81.480797 125.194489,76.454758 130.407684,78.631989 
	C128.756149,79.980377 127.402306,81.085724 126.024132,82.558990 
z"/>
<path fill="#010100" opacity="1.000000" stroke="none" 
	d="
M227.484436,105.413612 
	C225.599808,105.903778 223.758606,105.951843 221.458710,105.999954 
	C220.698959,100.665657 220.397888,95.331314 220.076828,89.642593 
	C222.200485,89.810913 223.528091,89.916138 225.032532,89.757629 
	C225.982178,94.653099 226.755005,99.812302 227.484436,105.413612 
z"/>
<path fill="#010100" opacity="1.000000" stroke="none" 
	d="
M249.094498,65.846291 
	C248.928116,66.158997 248.494858,66.259163 248.273499,66.239540 
	C246.257172,63.650517 242.631302,61.771126 244.626846,57.745018 
	C245.283615,56.420013 246.588348,54.165085 247.190872,54.290203 
	C249.312256,54.730717 251.671402,55.629025 253.103638,57.144432 
	C253.880463,57.966358 253.369492,60.574734 252.696106,62.034336 
	C252.051437,63.431618 250.444748,64.385063 249.094498,65.846291 
z"/>
<path fill="#070809" opacity="1.000000" stroke="none" 
	d="
M48.261421,108.675247 
	C47.559208,108.999977 47.115471,109.000343 46.339088,109.001877 
	C46.005386,102.313408 46.004326,95.623772 46.337624,88.466583 
	C47.115479,87.999260 47.558971,87.999474 48.002468,87.999695 
	C48.174946,94.783424 48.347420,101.567154 48.261421,108.675247 
z"/>
<path fill="#080808" opacity="1.000000" stroke="none" 
	d="
M314.005310,213.459366 
	C314.445435,212.988754 314.882233,212.987823 315.646118,212.979706 
	C315.973236,223.005402 315.973236,233.038315 315.973236,243.071228 
	C315.316132,243.076859 314.659058,243.082474 314.001953,243.088104 
	C314.001953,233.368423 314.001953,223.648743 314.005310,213.459366 
z"/>
<path fill="#E58F82" opacity="1.000000" stroke="none" 
	d="
M250.870728,113.352448 
	C250.962448,111.583473 251.411621,110.166176 251.406235,108.750603 
	C251.393616,105.428833 253.059128,104.583252 256.368927,105.389648 
	C256.904938,108.287140 257.060669,111.068008 257.263733,114.694077 
	C254.930054,114.324265 252.975845,114.014580 250.870728,113.352448 
z"/>
<path fill="#010100" opacity="1.000000" stroke="none" 
	d="
M111.973579,45.309822 
	C113.548111,44.589867 114.818336,44.071892 116.088570,43.553913 
	C116.204750,43.924988 116.320930,44.296059 116.437111,44.667130 
	C113.890862,46.767361 111.344612,48.867588 108.427536,51.273689 
	C106.582954,51.273689 104.031090,51.273689 100.508736,51.273689 
	C103.516068,46.708374 108.162064,47.149952 111.973579,45.309822 
z"/>
<path fill="#E0705D" opacity="1.000000" stroke="none" 
	d="
M256.825134,88.560173 
	C258.343719,90.891922 258.967010,93.373596 256.145630,94.948135 
	C255.022400,95.574997 251.923447,95.131294 251.813248,94.672844 
	C251.355896,92.769775 251.696136,90.675026 252.147125,88.353806 
	C252.690903,87.963699 252.831192,87.870422 253.366150,87.813553 
	C254.782242,88.086693 255.803696,88.323433 256.825134,88.560173 
z"/>
<path fill="#010100" opacity="1.000000" stroke="none" 
	d="
M266.613617,88.986389 
	C266.895599,91.522461 266.795715,94.044868 266.433044,96.808212 
	C264.732330,97.171333 263.294495,97.293541 261.601379,97.437447 
	C261.601379,94.487076 261.601379,91.648933 261.601379,88.305161 
	C263.176544,88.532249 264.704132,88.752487 266.613617,88.986389 
z"/>
<path fill="#010100" opacity="1.000000" stroke="none" 
	d="
M215.350586,82.580643 
	C213.814163,83.133011 212.535767,83.478546 210.856567,83.876083 
	C209.912918,81.257355 209.200745,78.237152 212.706436,77.314537 
	C214.408142,76.866692 216.495132,77.882851 218.407700,78.236221 
	C217.474655,79.615425 216.541611,80.994629 215.350586,82.580643 
z"/>
<path fill="#010100" opacity="1.000000" stroke="none" 
	d="
M93.305435,58.471672 
	C92.262817,60.200256 91.335220,61.587959 89.912056,63.717037 
	C88.384178,60.954590 87.381622,59.141949 85.969528,56.588844 
	C87.818459,55.769817 89.469376,54.582596 91.170181,54.506233 
	C91.864624,54.475052 92.667122,56.850327 93.305435,58.471672 
z"/>
<path fill="#010100" opacity="1.000000" stroke="none" 
	d="
M163.628784,24.057617 
	C164.331833,25.842579 164.663651,27.685156 164.993851,29.945992 
	C164.992218,30.364250 164.809357,30.653067 164.639053,30.650787 
	C161.630157,29.829018 158.791550,29.009531 154.192352,27.681767 
	C158.012939,26.178631 160.635269,25.146933 163.628784,24.057617 
z"/>
<path fill="#010100" opacity="1.000000" stroke="none" 
	d="
M256.896790,88.173599 
	C255.803696,88.323433 254.782242,88.086693 253.235168,87.648758 
	C252.503677,87.250343 252.267166,87.101990 252.000000,87.002518 
	C248.498245,85.329109 250.182663,83.897415 252.441696,83.254364 
	C254.234940,82.743912 256.289520,83.151543 258.763092,83.151543 
	C258.004120,85.111885 257.486267,86.449455 256.896790,88.173599 
z"/>
<path fill="#010100" opacity="1.000000" stroke="none" 
	d="
M180.724686,25.755987 
	C180.023499,26.384842 178.883423,27.302429 178.099060,27.061577 
	C174.841782,26.061384 171.691833,24.711657 168.251251,23.245108 
	C169.520828,22.933390 171.123734,22.528282 172.544830,22.872919 
	C175.234802,23.525282 177.820404,24.608044 180.724686,25.755987 
z"/>
<path fill="#010100" opacity="1.000000" stroke="none" 
	d="
M190.416656,34.000000 
	C189.002151,32.921185 188.004318,31.842373 187.003235,30.381779 
	C189.481583,30.503460 191.963150,31.006922 194.722366,32.088524 
	C195.000000,33.111111 195.000000,33.555553 195.000000,34.000000 
	C193.611115,34.000000 192.222214,34.000000 190.416656,34.000000 
z"/>
<path fill="#070809" opacity="1.000000" stroke="none" 
	d="
M50.713955,253.198120 
	C50.179592,252.255493 49.872318,251.546890 49.565041,250.838287 
	C50.280834,250.730957 51.299263,250.271790 51.657619,250.580032 
	C52.902359,251.650665 53.918045,252.987610 55.020855,254.223251 
	C54.666973,254.633560 54.313087,255.043884 53.959206,255.454208 
	C52.953148,254.780182 51.947094,254.106155 50.713955,253.198120 
z"/>
<path fill="#040404" opacity="1.000000" stroke="none" 
	d="
M31.711359,340.078918 
	C30.585802,338.672974 29.727409,337.464203 28.869019,336.255402 
	C29.365423,335.865601 29.861826,335.475800 30.358231,335.085968 
	C31.496143,336.535614 32.634056,337.985229 33.771973,339.434875 
	C33.174160,339.715302 32.576344,339.995697 31.711359,340.078918 
z"/>
<path fill="#010100" opacity="1.000000" stroke="none" 
	d="
M235.348724,65.587997 
	C235.583420,67.029198 235.528625,68.277397 235.473831,69.525604 
	C234.761093,69.326210 234.048370,69.126816 233.335632,68.927422 
	C233.910172,67.749947 234.484695,66.572472 235.348724,65.587997 
z"/>
<path fill="#0B0B0B" opacity="1.000000" stroke="none" 
	d="
M48.002872,87.565384 
	C47.558971,87.999474 47.115479,87.999260 46.339531,87.997841 
	C46.007076,85.349464 46.007076,82.702278 46.007076,80.055099 
	C46.672478,80.062637 47.337875,80.070183 48.003277,80.077721 
	C48.003277,82.428833 48.003277,84.779953 48.002872,87.565384 
z"/>
<path fill="#070809" opacity="1.000000" stroke="none" 
	d="
M211.928833,34.535278 
	C212.934830,35.306923 213.649139,35.994137 214.363449,36.681351 
	C213.662186,36.923748 212.960938,37.166142 212.259674,37.408539 
	C212.052155,36.422642 211.844650,35.436745 211.928833,34.535278 
z"/>
<path fill="#070809" opacity="1.000000" stroke="none" 
	d="
M74.941238,59.572933 
	C75.011131,59.914993 74.637917,60.102478 74.428856,60.106976 
	C72.942337,59.726982 71.664879,59.342491 70.387421,58.958000 
	C70.610580,58.306747 70.833748,57.655495 71.056908,57.004238 
	C72.328384,57.746452 73.599861,58.488663 74.941238,59.572933 
z"/>
<path fill="#070809" opacity="1.000000" stroke="none" 
	d="
M98.281624,47.836365 
	C97.039925,48.362923 95.956284,48.627762 94.872635,48.892601 
	C94.827217,48.312794 94.781799,47.732986 94.736382,47.153179 
	C95.970818,47.293671 97.205246,47.434158 98.281624,47.836365 
z"/>
<path fill="#010100" opacity="1.000000" stroke="none" 
	d="
M195.328232,34.048599 
	C195.000000,33.555553 195.000000,33.111111 195.000000,32.333336 
	C196.607132,32.771042 198.214264,33.542084 199.821396,34.313122 
	C199.642319,34.713871 199.463242,35.114624 199.284164,35.515373 
	C198.074936,35.042648 196.865692,34.569923 195.328232,34.048599 
z"/>
<path fill="#070809" opacity="1.000000" stroke="none" 
	d="
M78.219025,54.892281 
	C79.113960,54.873238 79.831726,55.088276 80.549500,55.303318 
	C79.922569,55.978565 79.295639,56.653812 78.668716,57.329063 
	C78.459770,56.594830 78.250816,55.860600 78.219025,54.892281 
z"/>
<path fill="#040404" opacity="1.000000" stroke="none" 
	d="
M122.760292,261.909027 
	C124.187340,261.586578 125.968529,261.408600 127.992767,261.569214 
	C126.528694,261.956390 124.821556,262.004944 122.760292,261.909027 
z"/>
<path fill="#070809" opacity="1.000000" stroke="none" 
	d="
M54.666862,64.291664 
	C54.947830,63.570591 55.411167,63.039253 55.874512,62.507919 
	C56.076157,62.718761 56.277798,62.929604 56.479443,63.140442 
	C55.936039,63.587429 55.392639,64.034416 54.666862,64.291664 
z"/>
<path fill="#070809" opacity="1.000000" stroke="none" 
	d="
M131.128235,34.523331 
	C131.020538,33.862778 131.184296,33.224323 131.348068,32.585869 
	C131.722519,32.756744 132.096954,32.927624 132.471405,33.098499 
	C132.114166,33.580811 131.756943,34.063118 131.128235,34.523331 
z"/>
<path fill="#070809" opacity="1.000000" stroke="none" 
	d="
M305.004150,61.994305 
	C305.908844,62.511978 306.813568,63.029652 307.718262,63.547321 
	C307.426697,63.913998 307.135132,64.280678 306.843536,64.647354 
	C306.259308,63.973171 305.675049,63.298992 305.045410,62.312408 
	C305.000000,62.000000 305.004150,61.994301 305.004150,61.994305 
z"/>
<path fill="#070809" opacity="1.000000" stroke="none" 
	d="
M219.804565,38.913841 
	C219.293564,38.475399 219.040970,38.057316 218.788391,37.639233 
	C219.356506,37.710281 219.924606,37.781330 220.492737,37.852379 
	C220.349487,38.212990 220.206238,38.573593 219.804565,38.913841 
z"/>
<path fill="#070809" opacity="1.000000" stroke="none" 
	d="
M256.754425,53.673031 
	C257.605438,53.672897 258.290100,53.864616 258.974792,54.056335 
	C258.860382,54.362137 258.745972,54.667938 258.631561,54.973740 
	C257.950409,54.604118 257.269226,54.234501 256.754425,53.673031 
z"/>
<path fill="#070809" opacity="1.000000" stroke="none" 
	d="
M137.124146,31.575478 
	C136.346146,31.785221 135.764908,31.828667 135.183670,31.872112 
	C135.244934,31.543428 135.306198,31.214746 135.367447,30.886065 
	C136.018616,31.060436 136.669769,31.234808 137.124146,31.575478 
z"/>
<path fill="#070809" opacity="1.000000" stroke="none" 
	d="
M269.627228,61.153542 
	C268.928101,61.122932 268.496765,60.921627 267.976440,60.495621 
	C268.567749,59.976688 269.248016,59.682457 269.928314,59.388222 
	C269.917236,59.919762 269.906128,60.451305 269.627228,61.153542 
z"/>
<path fill="#070809" opacity="1.000000" stroke="none" 
	d="
M260.975037,59.822277 
	C260.567963,60.406719 260.094482,60.695404 259.333618,61.035755 
	C259.205139,60.333065 259.364075,59.578709 259.523010,58.824348 
	C259.984894,59.058403 260.446808,59.292461 260.975037,59.822277 
z"/>
<path fill="#070809" opacity="1.000000" stroke="none" 
	d="
M107.123062,43.576241 
	C106.344757,43.786400 105.763336,43.830288 105.181915,43.874180 
	C105.243149,43.545040 105.304375,43.215904 105.365608,42.886768 
	C106.017059,43.061169 106.668503,43.235569 107.123062,43.576241 
z"/>
<path fill="#070809" opacity="1.000000" stroke="none" 
	d="
M190.870270,92.757957 
	C190.530548,93.332481 190.062988,93.664909 189.297562,93.999268 
	C189.580597,93.506088 190.161530,93.010979 190.870270,92.757957 
z"/>
<path fill="#070809" opacity="1.000000" stroke="none" 
	d="
M241.839066,46.872093 
	C242.213242,47.323402 242.358078,47.734234 242.502899,48.145061 
	C242.226273,48.231686 241.949631,48.318310 241.673004,48.404938 
	C241.651901,47.880497 241.630814,47.356060 241.839066,46.872093 
z"/>
<path fill="#070809" opacity="1.000000" stroke="none" 
	d="
M63.738907,58.883350 
	C63.274326,59.129044 62.882088,59.144264 62.489853,59.159485 
	C62.639904,58.746758 62.789951,58.334023 62.939995,57.921288 
	C63.230412,58.165154 63.520832,58.409019 63.738907,58.883350 
z"/>
<path fill="#010101" opacity="1.000000" stroke="none" 
	d="
M306.514282,273.956970 
	C306.832367,273.830566 307.146942,273.902496 307.461517,273.974426 
	C307.144592,274.034729 306.827698,274.095001 306.514282,273.956970 
z"/>
<path fill="#070809" opacity="1.000000" stroke="none" 
	d="
M151.692581,24.623241 
	C152.004532,24.763680 152.173981,25.038414 152.343430,25.313152 
	C152.078979,25.127949 151.814545,24.942743 151.692581,24.623241 
z"/>
<path fill="#070809" opacity="1.000000" stroke="none" 
	d="
M313.500793,74.948029 
	C313.820740,74.820648 314.139252,74.893929 314.457733,74.967216 
	C314.138245,75.027710 313.818787,75.088203 313.500793,74.948029 
z"/>
<path fill="#070809" opacity="1.000000" stroke="none" 
	d="
M47.961956,248.491425 
	C47.834316,248.171478 47.906010,247.855835 47.977699,247.540207 
	C48.038895,247.858719 48.100090,248.177246 47.961956,248.491425 
z"/>
<path fill="#070809" opacity="1.000000" stroke="none" 
	d="
M216.460297,90.729958 
	C216.147003,90.220078 216.008072,89.482887 215.934540,88.373154 
	C216.211502,88.834625 216.423096,89.668640 216.460297,90.729958 
z"/>
<path fill="#070809" opacity="1.000000" stroke="none" 
	d="
M302.887970,74.902390 
	C302.537964,74.732590 302.169525,74.227646 301.727112,73.412300 
	C302.058594,73.590347 302.464081,74.078796 302.887970,74.902390 
z"/>
<path fill="#070809" opacity="1.000000" stroke="none" 
	d="
M271.817749,56.566086 
	C271.865143,56.420254 271.967834,56.372620 272.070526,56.324986 
	C272.004700,56.438087 271.938843,56.551189 271.817749,56.566086 
z"/>
<path fill="#070809" opacity="1.000000" stroke="none" 
	d="
M188.830200,25.396023 
	C189.009338,25.359909 189.111969,25.407957 189.214584,25.456005 
	C189.060944,25.464064 188.907303,25.472124 188.830200,25.396023 
z"/>
<path fill="#070809" opacity="1.000000" stroke="none" 
	d="
M297.755615,69.015938 
	C297.352081,69.047455 296.794312,68.796890 296.049377,68.300613 
	C296.441956,68.281219 297.021637,68.507530 297.755615,69.015938 
z"/>
<path fill="#070809" opacity="1.000000" stroke="none" 
	d="
M238.771744,56.788792 
	C238.367508,56.887077 237.733444,56.746960 236.870651,56.367325 
	C237.275253,56.268669 237.908585,56.409527 238.771744,56.788792 
z"/>
<path fill="#070809" opacity="1.000000" stroke="none" 
	d="
M241.636688,58.977089 
	C241.388641,58.846493 241.331940,58.667854 241.170288,58.228439 
	C241.319534,58.288116 241.573776,58.608578 241.636688,58.977089 
z"/>
<path fill="#070809" opacity="1.000000" stroke="none" 
	d="
M226.479675,40.512634 
	C226.466980,40.484383 226.492355,40.540886 226.479675,40.512634 
z"/>
<path fill="#070809" opacity="1.000000" stroke="none" 
	d="
M311.000000,67.000305 
	C311.000000,67.000305 311.349731,67.213295 311.349731,67.213295 
	C311.349731,67.213295 311.091156,67.196404 311.045593,67.098206 
	C311.000000,67.000000 311.000000,67.000305 311.000000,67.000305 
z"/>
<path fill="#070809" opacity="1.000000" stroke="none" 
	d="
M48.512535,74.521500 
	C48.483120,74.535004 48.541950,74.507996 48.512535,74.521500 
z"/>
<path fill="#070809" opacity="1.000000" stroke="none" 
	d="
M311.000000,66.999847 
	C311.000000,66.999695 310.649536,66.787788 310.649536,66.787788 
	C310.649536,66.787788 310.908203,66.803841 310.954102,66.902069 
	C311.000000,67.000305 311.000000,67.000000 311.000000,66.999847 
z"/>
<path fill="#070809" opacity="1.000000" stroke="none" 
	d="
M272.644836,66.064362 
	C272.715637,66.099007 272.327454,66.175957 272.299561,66.058823 
	C272.271698,65.941696 272.574066,66.029716 272.644836,66.064362 
z"/>
<path fill="#070809" opacity="1.000000" stroke="none" 
	d="
M304.997070,62.002094 
	C304.994141,62.004189 304.640930,61.781090 304.640930,61.781090 
	C304.640930,61.781090 304.910339,61.794426 304.957245,61.894363 
	C305.004150,61.994301 305.000000,62.000000 304.997070,62.002094 
z"/>
<path fill="#070809" opacity="1.000000" stroke="none" 
	d="
M252.009613,87.282814 
	C252.267166,87.101990 252.503677,87.250343 252.840515,87.612358 
	C252.831192,87.870422 252.690903,87.963699 252.300079,88.090088 
	C252.039459,87.936516 252.029358,87.749809 252.009613,87.282814 
z"/>
<path fill="#070809" opacity="1.000000" stroke="none" 
	d="
M298.472687,57.517216 
	C298.455444,57.482361 298.489929,57.552071 298.472687,57.517216 
z"/>
<path fill="#070809" opacity="1.000000" stroke="none" 
	d="
M240.794815,57.732246 
	C240.614899,57.842518 240.211716,57.741428 239.608521,57.392197 
	C239.796188,57.269669 240.183868,57.395279 240.794815,57.732246 
z"/>
<path fill="#070809" opacity="1.000000" stroke="none" 
	d="
M204.890533,43.006012 
	C204.771362,43.156956 204.600220,43.149765 204.224167,42.987556 
	C204.310486,42.548222 204.583588,42.553337 204.890533,43.006012 
z"/>
<path fill="#090605" opacity="1.000000" stroke="none" 
	d="
M173.333649,101.224335 
	C173.311310,101.435966 172.976395,101.692802 172.316223,101.958679 
	C172.334335,101.734993 172.677704,101.502274 173.333649,101.224335 
z"/>
<path fill="#070B0C" opacity="1.000000" stroke="none" 
	d="
M273.607971,85.376282 
	C274.357727,81.535759 276.666840,80.365730 280.125000,80.266518 
	C293.655853,79.878342 293.765747,79.917442 293.765594,93.435905 
	C293.765167,137.415222 293.768097,181.394531 293.760742,225.373856 
	C293.759491,232.925858 292.740601,233.920029 285.038635,233.920486 
	C215.737900,233.924652 146.437149,233.924683 77.136414,233.920166 
	C69.084015,233.919647 68.237099,233.073151 68.236702,225.076645 
	C68.234467,179.764618 68.233437,134.452606 68.244247,89.140579 
	C68.246147,81.188568 69.147850,80.320709 77.177734,80.313889 
	C84.174438,80.307938 91.171898,80.371765 98.167519,80.284309 
	C101.330009,80.244781 103.731979,81.138481 104.903152,84.720703 
	C104.170555,88.705200 101.896423,90.160110 98.130157,90.054192 
	C91.654007,89.872070 85.169014,90.003815 78.305954,90.003815 
	C78.305954,134.659027 78.305954,179.044556 78.305954,223.817688 
	C146.556580,223.817688 214.937515,223.817688 283.680969,223.817688 
	C283.680969,179.550995 283.680969,135.156433 283.680969,90.418694 
	C280.407776,89.107887 274.884216,91.807922 273.607971,85.376282 
z"/>
<path fill="#090C0D" opacity="1.000000" stroke="none" 
	d="
M190.999847,208.670929 
	C160.350479,208.670517 130.201111,208.673325 100.051750,208.661148 
	C98.391052,208.660477 96.414734,209.074707 95.148422,208.333618 
	C93.509674,207.374573 91.260902,205.313980 91.413361,203.970291 
	C91.612640,202.213837 93.706108,200.429596 95.376671,199.182358 
	C96.246758,198.532745 97.958221,198.982529 99.289642,198.982376 
	C145.762970,198.977066 192.236298,198.976822 238.709625,198.979614 
	C239.874832,198.979675 241.371506,198.571991 242.137573,199.136368 
	C243.835098,200.386902 246.282028,202.101273 246.330627,203.690475 
	C246.378799,205.265167 244.148697,207.544464 242.383759,208.362701 
	C240.586197,209.196060 238.137833,208.662109 235.974365,208.663803 
	C221.149521,208.675446 206.324692,208.670547 190.999847,208.670929 
z"/>
<path fill="#090D0D" opacity="1.000000" stroke="none" 
	d="
M177.000122,179.243958 
	C197.817459,179.244034 218.134796,179.242889 238.452133,179.246994 
	C239.783752,179.247253 241.452164,178.790955 242.374435,179.416336 
	C244.107635,180.591614 246.766891,182.612778 246.567581,183.898895 
	C246.281387,185.745712 243.929596,187.441986 242.155579,188.807587 
	C241.417068,189.376083 239.895737,188.939789 238.730362,188.939819 
	C192.433487,188.941223 146.136612,188.940308 99.839729,188.939407 
	C99.007057,188.939392 98.174034,188.919403 97.341766,188.936890 
	C94.060951,189.005783 91.550819,187.668594 91.486702,184.232620 
	C91.416359,180.462845 94.102814,179.181168 97.562531,179.245087 
	C98.727852,179.266632 99.893959,179.244492 101.059708,179.244476 
	C126.206505,179.244125 151.353302,179.244064 177.000122,179.243958 
z"/>
<path fill="#010100" opacity="1.000000" stroke="none" 
	d="
M134.929245,97.994972 
	C133.874802,105.878601 132.767120,113.755844 131.818909,121.652229 
	C131.662857,122.951805 132.206909,124.335457 132.963654,126.090218 
	C133.904785,126.590538 134.309662,126.680885 134.714539,126.771240 
	C139.665573,129.329544 144.616608,131.887833 149.837128,134.982513 
	C150.763290,135.611496 151.419968,135.704102 152.076645,135.796722 
	C154.497772,136.430084 156.918915,137.063446 159.757645,138.004456 
	C160.175247,138.312119 160.605057,138.434860 160.605057,138.434860 
	C160.605057,138.434860 160.986069,138.172501 160.986069,138.172485 
	C167.140839,137.983002 173.295624,137.793503 180.161011,137.670074 
	C181.241928,137.547562 181.612228,137.358994 181.982544,137.170425 
	C182.780807,136.844009 183.579086,136.517609 184.827667,136.302856 
	C185.638641,136.473495 185.873444,136.316803 185.982407,135.944458 
	C191.852325,132.871323 197.722260,129.798203 204.367035,126.812775 
	C205.427521,126.943687 205.713165,126.986900 206.054016,127.362595 
	C207.508911,128.019714 208.900970,128.547119 210.310883,128.600143 
	C211.307022,128.637634 212.353348,127.697914 213.332260,127.773926 
	C216.898407,128.050858 220.445633,128.571335 224.000000,129.391739 
	C224.000015,130.828079 224.000031,131.872681 224.000061,132.917282 
	C213.581451,132.930527 204.498062,136.505417 195.317215,141.487411 
	C177.199753,151.318893 158.660172,150.559540 140.592773,140.355484 
	C136.705856,138.160248 132.596695,136.358551 128.027557,133.970886 
	C127.028221,133.535172 126.591248,133.504135 126.154266,133.473099 
	C121.878082,133.359451 117.602386,133.184433 113.325562,133.150055 
	C109.345818,133.118057 107.467255,131.166901 107.909317,127.265160 
	C108.652306,120.707428 109.558121,114.168137 110.968979,107.248177 
	C114.852287,105.695663 115.809914,107.137070 116.130974,110.337814 
	C116.298866,112.011543 117.871902,113.544327 118.810333,115.140762 
	C118.668137,116.743324 118.344063,118.357162 118.442436,119.944824 
	C118.518448,121.171707 119.123871,122.365791 119.493927,123.574463 
	C120.385292,122.566895 121.354836,121.615112 122.132103,120.526108 
	C122.474823,120.045937 122.427032,119.287048 122.949249,118.189484 
	C123.283432,117.156242 123.224915,116.588226 123.166389,116.020203 
	C124.257889,109.173477 125.349388,102.326752 126.954659,95.141632 
	C127.709999,94.623718 127.897148,94.398895 128.029892,94.128784 
	C131.260422,91.888428 133.338303,93.304085 134.775604,96.761467 
	C134.491318,97.557442 134.589935,97.814911 134.929245,97.994972 
z"/>
<path fill="#020303" opacity="1.000000" stroke="none" 
	d="
M223.000031,159.612610 
	C229.331009,159.613541 235.162079,159.630661 240.993027,159.609329 
	C244.401108,159.596863 247.146057,160.623459 246.999405,164.564774 
	C246.865936,168.151199 244.278015,169.094345 241.053986,169.092850 
	C193.406204,169.070908 145.758423,169.071365 98.110641,169.096817 
	C94.741875,169.098618 91.858147,168.314774 91.860451,164.378662 
	C91.862984,160.054886 95.105263,159.597504 98.549232,159.599991 
	C129.536942,159.622330 160.524658,159.612823 191.512375,159.612686 
	C201.841599,159.612640 212.170837,159.612640 223.000031,159.612610 
z"/>
<path fill="#010101" opacity="1.000000" stroke="none" 
	d="
M118.943924,114.785812 
	C117.871902,113.544327 116.298866,112.011543 116.130974,110.337814 
	C115.809914,107.137070 114.852287,105.695663 111.169380,106.901283 
	C111.577591,99.869987 112.358948,92.812675 113.076797,85.394051 
	C113.216911,84.501160 113.420532,83.969589 113.809479,82.947098 
	C113.994820,82.456192 114.021866,82.066467 114.021866,82.066467 
	C114.062233,80.983704 114.102592,79.900948 114.484726,78.416809 
	C115.214470,78.008858 115.602448,78.002289 115.990417,77.995728 
	C117.407509,82.025124 118.640800,86.048431 114.654312,90.605110 
	C117.384499,90.772682 119.236038,90.886330 121.498436,90.999939 
	C121.702850,93.090622 121.496414,95.181335 120.944366,97.785202 
	C120.660110,98.855255 120.721458,99.412132 120.782806,99.969017 
	C120.214378,104.789635 119.645958,109.610252 118.943924,114.785812 
z"/>
<path fill="#010100" opacity="1.000000" stroke="none" 
	d="
M224.385559,133.019318 
	C224.000031,131.872681 224.000015,130.828079 224.000000,129.391739 
	C225.771942,129.000473 227.543884,129.000961 229.759857,129.002274 
	C229.983047,132.473541 227.684814,133.203476 224.385559,133.019318 
z"/>
<path fill="#010101" opacity="1.000000" stroke="none" 
	d="
M265.798401,122.675110 
	C265.680634,120.679520 265.941315,118.476120 266.582581,116.136589 
	C266.701050,118.156075 266.438934,120.311684 265.798401,122.675110 
z"/>
<path fill="#080606" opacity="1.000000" stroke="none" 
	d="
M126.416138,133.681778 
	C126.591248,133.504135 127.028221,133.535172 127.730042,133.768738 
	C127.555916,133.944336 127.116966,133.917389 126.416138,133.681778 
z"/>
<path fill="#070809" opacity="1.000000" stroke="none" 
	d="
M115.933029,77.709564 
	C115.602448,78.002289 115.214470,78.008858 114.535416,78.012268 
	C114.244324,78.009117 113.915253,77.752785 113.871300,77.548889 
	C114.510109,77.371124 115.192879,77.397263 115.933029,77.709564 
z"/>
<path fill="#070809" opacity="1.000000" stroke="none" 
	d="
M113.912872,82.137672 
	C114.021866,82.066467 113.994820,82.456192 113.970093,82.550674 
	C113.745621,82.549294 113.698456,82.403870 113.912872,82.137672 
z"/>
<path fill="#010101" opacity="1.000000" stroke="none" 
	d="
M315.441101,299.232910 
	C316.113159,298.424591 316.733856,297.759888 317.354584,297.095215 
	C317.130249,297.997681 316.905914,298.900116 316.335968,299.901855 
	C315.678467,299.916229 315.478271,299.708038 315.441101,299.232910 
z"/>
<path fill="#040404" opacity="1.000000" stroke="none" 
	d="
M312.160309,291.281982 
	C312.868774,291.178589 313.569397,291.362396 314.270050,291.546234 
	C314.052521,291.989807 313.834961,292.433380 313.339935,292.939453 
	C312.759125,292.524384 312.455811,292.046783 312.160309,291.281982 
z"/>
<path fill="#0C0605" opacity="1.000000" stroke="none" 
	d="
M173.976776,38.659584 
	C172.158966,40.420059 170.603409,42.278393 168.619370,43.092518 
	C156.503403,48.064114 144.290161,52.798664 130.837708,58.114777 
	C137.232376,60.983353 142.531937,63.362301 147.833084,65.737755 
	C149.501831,66.485512 151.747253,66.794785 152.704758,68.072250 
	C153.977600,69.770439 155.166061,72.495392 154.638504,74.253342 
	C154.263657,75.502396 150.526810,77.044167 149.090790,76.466347 
	C137.992310,72.000603 127.046967,67.141014 116.179611,62.131348 
	C114.855133,61.520779 113.219009,58.927216 113.578163,57.899414 
	C114.242752,55.997543 115.967857,53.837498 117.791443,53.072201 
	C128.979034,48.377151 140.317291,44.041039 151.606873,39.589180 
	C156.555435,37.637802 161.477859,35.615147 166.466599,33.772243 
	C171.090088,32.064270 172.920151,33.223988 173.976776,38.659584 
z"/>
<path fill="#010100" opacity="1.000000" stroke="none" 
	d="
M224.000061,128.579346 
	C220.445633,128.571335 216.898407,128.050858 213.332260,127.773926 
	C212.353348,127.697914 211.307022,128.637634 210.310883,128.600143 
	C208.900970,128.547119 207.508911,128.019714 206.259521,127.199562 
	C206.583313,126.405159 206.756821,126.106255 206.930344,125.807358 
	C206.652908,122.800117 206.375473,119.792870 206.251068,116.272324 
	C206.520996,115.420898 206.409424,115.169533 206.069412,115.004921 
	C205.752213,113.569550 205.435013,112.134171 205.327332,110.150970 
	C205.348053,109.067619 205.159241,108.532082 204.970444,107.996552 
	C204.473907,105.489052 203.977386,102.981544 203.681274,99.624725 
	C203.887955,97.806145 203.894211,96.836884 203.900467,95.867615 
	C203.900467,95.867615 203.935730,95.937508 204.128113,95.791245 
	C204.462769,95.314133 204.605042,94.983276 204.747314,94.652420 
	C204.747314,94.652420 204.771133,94.778847 204.980774,94.709976 
	C205.443100,94.378181 205.695786,94.115273 205.948456,93.852364 
	C208.959976,92.150009 210.787323,93.608078 211.942780,96.776108 
	C212.106308,98.574471 212.519897,99.788757 212.933502,101.003036 
	C213.949738,106.734329 214.965988,112.465622 215.818085,118.716171 
	C215.531143,119.588783 215.652298,119.844193 216.017395,120.001663 
	C216.334290,121.040009 216.651184,122.078346 217.135406,123.669586 
	C217.867905,124.153885 218.433075,124.085289 218.998230,124.016693 
	C219.274841,122.279350 219.551437,120.542000 219.890167,118.402328 
	C223.634888,118.214790 225.523300,119.690796 224.330215,123.739395 
	C223.922012,125.124626 224.093491,126.680672 224.000061,128.579346 
z"/>
<path fill="#080606" opacity="1.000000" stroke="none" 
	d="
M212.990540,100.649887 
	C212.519897,99.788757 212.106308,98.574471 211.955109,97.135025 
	C212.494202,98.038818 212.770889,99.167770 212.990540,100.649887 
z"/>
<path fill="#080606" opacity="1.000000" stroke="none" 
	d="
M151.894928,135.564514 
	C151.419968,135.704102 150.763290,135.611496 150.061829,135.235901 
	C150.582428,135.079391 151.147827,135.205841 151.894928,135.564514 
z"/>
<path fill="#080606" opacity="1.000000" stroke="none" 
	d="
M203.633850,96.107971 
	C203.894211,96.836884 203.887955,97.806145 203.797714,99.258713 
	C203.598236,98.610786 203.482727,97.479561 203.633850,96.107971 
z"/>
<path fill="#080606" opacity="1.000000" stroke="none" 
	d="
M206.570160,125.825279 
	C206.756821,126.106255 206.583313,126.405159 206.204315,126.867096 
	C205.713165,126.986900 205.427521,126.943687 204.716064,126.812912 
	C204.930145,126.431305 205.570068,126.137253 206.570160,125.825279 
z"/>
<path fill="#080606" opacity="1.000000" stroke="none" 
	d="
M218.686707,123.920029 
	C218.433075,124.085289 217.867905,124.153885 217.187515,123.992294 
	C217.506592,123.782524 217.940887,123.802940 218.686707,123.920029 
z"/>
<path fill="#080606" opacity="1.000000" stroke="none" 
	d="
M123.031891,116.336197 
	C123.224915,116.588226 123.283432,117.156242 123.138008,117.866928 
	C122.921844,117.557114 122.909622,117.104652 123.031891,116.336197 
z"/>
<path fill="#080606" opacity="1.000000" stroke="none" 
	d="
M204.911377,108.331573 
	C205.159241,108.532082 205.348053,109.067619 205.374664,109.784348 
	C205.092407,109.532562 204.972351,109.099579 204.911377,108.331573 
z"/>
<path fill="#070809" opacity="1.000000" stroke="none" 
	d="
M120.911026,99.655479 
	C120.721458,99.412132 120.660110,98.855255 120.790649,98.151756 
	C121.001442,98.450745 121.020348,98.896339 120.911026,99.655479 
z"/>
<path fill="#080606" opacity="1.000000" stroke="none" 
	d="
M206.014786,115.257942 
	C206.409424,115.169533 206.520996,115.420898 206.291428,115.869637 
	C206.105865,115.823830 206.033005,115.667397 206.014786,115.257942 
z"/>
<path fill="#080606" opacity="1.000000" stroke="none" 
	d="
M205.659088,93.878693 
	C205.695786,94.115273 205.443100,94.378181 204.916992,94.701706 
	C204.885620,94.476547 205.127670,94.190781 205.659088,93.878693 
z"/>
<path fill="#080606" opacity="1.000000" stroke="none" 
	d="
M127.781891,94.156158 
	C127.897148,94.398895 127.709999,94.623718 127.275711,94.911484 
	C127.053780,94.644196 127.204079,94.365463 127.781891,94.156158 
z"/>
<path fill="#080606" opacity="1.000000" stroke="none" 
	d="
M204.487335,94.775101 
	C204.605042,94.983276 204.462769,95.314133 204.089142,95.794937 
	C203.981003,95.595848 204.104187,95.246819 204.487335,94.775101 
z"/>
<path fill="#080606" opacity="1.000000" stroke="none" 
	d="
M135.010162,97.744347 
	C134.589935,97.814911 134.491318,97.557442 134.754150,97.117966 
	C134.946976,97.173492 135.019028,97.333603 135.010162,97.744347 
z"/>
<path fill="#080606" opacity="1.000000" stroke="none" 
	d="
M216.072418,119.743454 
	C215.652298,119.844193 215.531143,119.588783 215.774139,119.123459 
	C215.972031,119.169426 216.049728,119.327339 216.072418,119.743454 
z"/>
<path fill="#080606" opacity="1.000000" stroke="none" 
	d="
M134.499390,126.524887 
	C134.309662,126.680885 133.904785,126.590538 133.258209,126.300354 
	C133.439102,126.159859 133.861679,126.219193 134.499390,126.524887 
z"/>
<path fill="#080606" opacity="1.000000" stroke="none" 
	d="
M185.721252,135.932251 
	C185.873444,136.316803 185.638641,136.473495 185.152191,136.313324 
	C185.170975,136.114746 185.315536,136.017395 185.721252,135.932251 
z"/>
<path fill="#080606" opacity="1.000000" stroke="none" 
	d="
M181.657578,137.136093 
	C181.612228,137.358994 181.241928,137.547562 180.552094,137.732178 
	C180.599258,137.519409 180.965927,137.310593 181.657578,137.136093 
z"/>
<path fill="#080606" opacity="1.000000" stroke="none" 
	d="
M160.751297,138.059204 
	C160.986069,138.172501 160.605057,138.434860 160.605057,138.434860 
	C160.605057,138.434860 160.175247,138.312119 160.089508,138.176239 
	C160.174683,138.008881 160.345596,137.977402 160.751297,138.059204 
z"/>
<path fill="#010101" opacity="1.000000" stroke="none" 
	d="
M318.056458,287.348755 
	C322.138062,287.136780 321.407593,291.067993 322.945007,293.637543 
	C321.370972,291.899567 319.741943,289.799133 318.056458,287.348755 
z"/>
<path fill="#010101" opacity="1.000000" stroke="none" 
	d="
M323.768799,297.243164 
	C324.332550,298.092773 324.665100,299.185516 324.998230,300.639160 
	C324.511749,299.828766 324.024689,298.657532 323.768799,297.243164 
z"/>
<path fill="#010101" opacity="1.000000" stroke="none" 
	d="
M316.062988,280.306763 
	C316.624481,280.462097 317.248932,280.924164 317.936096,281.693115 
	C317.374512,281.537842 316.750275,281.075684 316.062988,280.306763 
z"/>
</svg>